<mxfile host="65bd71144e">
    <diagram id="Z-FYV8YgyGBGDuuWuuc7" name="Page-1">
        <mxGraphModel dx="1774" dy="1220" grid="1" gridSize="10" guides="1" tooltips="1" connect="1" arrows="1" fold="1" page="1" pageScale="1" pageWidth="850" pageHeight="1100" math="0" shadow="0">
            <root>
                <mxCell id="0"/>
                <mxCell id="1" style="" parent="0"/>
                <mxCell id="4g3HLyUKp_iSWFGfKS_9-1" value="" style="rounded=1;arcSize=4;dashed=1;fillColor=none;gradientColor=none;dashPattern=1 1;strokeWidth=2;" parent="1" vertex="1">
                    <mxGeometry x="350" y="120" width="930" height="1400" as="geometry"/>
                </mxCell>
                <mxCell id="4g3HLyUKp_iSWFGfKS_9-2" value="" style="rounded=1;arcSize=10;dashed=0;fillColor=none;gradientColor=none;strokeWidth=2;" parent="1" vertex="1">
                    <mxGeometry x="1360" y="118" width="150" height="350" as="geometry"/>
                </mxCell>
                <mxCell id="4g3HLyUKp_iSWFGfKS_9-3" value="" style="dashed=0;html=1;shape=mxgraph.aws3.corporate_data_center;fillColor=#7D7C7C;gradientColor=none;dashed=0;" parent="1" vertex="1">
                    <mxGeometry x="1380" y="100" width="30" height="42" as="geometry"/>
                </mxCell>
                <mxCell id="4g3HLyUKp_iSWFGfKS_9-4" value="" style="outlineConnect=0;dashed=0;verticalLabelPosition=bottom;verticalAlign=top;align=center;html=1;shape=mxgraph.aws3.cloud_2;fillColor=#F58534;gradientColor=none;" parent="1" vertex="1">
                    <mxGeometry x="370" y="97" width="50" height="45" as="geometry"/>
                </mxCell>
                <mxCell id="4g3HLyUKp_iSWFGfKS_9-5" value="AWS Region" style="text;html=1;strokeColor=none;fillColor=none;align=center;verticalAlign=middle;whiteSpace=wrap;rounded=0;" parent="1" vertex="1">
                    <mxGeometry x="407" y="114" width="110" height="30" as="geometry"/>
                </mxCell>
                <mxCell id="4g3HLyUKp_iSWFGfKS_9-40" value="" style="rounded=1;arcSize=10;dashed=0;fillColor=none;gradientColor=none;strokeWidth=2;" parent="1" vertex="1">
                    <mxGeometry x="130" y="120" width="140" height="240" as="geometry"/>
                </mxCell>
                <mxCell id="4g3HLyUKp_iSWFGfKS_9-41" value="" style="rounded=1;arcSize=10;dashed=0;fillColor=none;gradientColor=none;strokeWidth=2;" parent="1" vertex="1">
                    <mxGeometry x="130" y="610" width="140" height="350" as="geometry"/>
                </mxCell>
                <mxCell id="4g3HLyUKp_iSWFGfKS_9-43" value="" style="outlineConnect=0;dashed=0;verticalLabelPosition=bottom;verticalAlign=top;align=center;html=1;shape=mxgraph.aws3.internet_3;fillColor=#D2D3D3;gradientColor=none;" parent="1" vertex="1">
                    <mxGeometry x="170" y="394" width="80" height="60" as="geometry"/>
                </mxCell>
                <mxCell id="4g3HLyUKp_iSWFGfKS_9-44" value="" style="outlineConnect=0;dashed=0;verticalLabelPosition=bottom;verticalAlign=top;align=center;html=1;shape=mxgraph.aws3.internet_3;fillColor=#D2D3D3;gradientColor=none;" parent="1" vertex="1">
                    <mxGeometry x="140" y="590" width="60" height="38" as="geometry"/>
                </mxCell>
                <mxCell id="4g3HLyUKp_iSWFGfKS_9-45" value="&lt;div&gt;Remote&lt;/div&gt;&lt;div&gt;Employee&lt;br&gt;&lt;/div&gt;" style="text;html=1;strokeColor=none;fillColor=none;align=center;verticalAlign=middle;whiteSpace=wrap;rounded=0;" parent="1" vertex="1">
                    <mxGeometry x="212.59" y="130" width="60" height="30" as="geometry"/>
                </mxCell>
                <mxCell id="4g3HLyUKp_iSWFGfKS_9-46" value="" style="shape=mxgraph.cisco.buildings.small_business;html=1;pointerEvents=1;dashed=0;fillColor=#CCCCCC;strokeColor=#ffffff;strokeWidth=2;verticalLabelPosition=bottom;verticalAlign=top;align=center;outlineConnect=0;aspect=fixed;" parent="1" vertex="1">
                    <mxGeometry x="140" y="99.5" width="72.59" height="40" as="geometry"/>
                </mxCell>
                <mxCell id="4g3HLyUKp_iSWFGfKS_9-47" value="Consumer" style="text;html=1;strokeColor=none;fillColor=none;align=center;verticalAlign=middle;whiteSpace=wrap;rounded=0;" parent="1" vertex="1">
                    <mxGeometry x="200" y="620" width="60" height="30" as="geometry"/>
                </mxCell>
                <mxCell id="4g3HLyUKp_iSWFGfKS_9-48" value="&lt;div&gt;Corporate&lt;/div&gt;&lt;div&gt;Data Center&lt;br&gt;&lt;/div&gt;" style="text;html=1;strokeColor=none;fillColor=none;align=center;verticalAlign=middle;whiteSpace=wrap;rounded=0;" parent="1" vertex="1">
                    <mxGeometry x="1430" y="120" width="70" height="30" as="geometry"/>
                </mxCell>
                <mxCell id="4g3HLyUKp_iSWFGfKS_9-203" value="" style="rounded=1;arcSize=10;dashed=0;fillColor=none;gradientColor=none;strokeWidth=2;" parent="1" vertex="1">
                    <mxGeometry x="1360" y="654" width="150" height="350" as="geometry"/>
                </mxCell>
                <mxCell id="4g3HLyUKp_iSWFGfKS_9-204" value="" style="dashed=0;html=1;shape=mxgraph.aws3.corporate_data_center;fillColor=#7D7C7C;gradientColor=none;dashed=0;" parent="1" vertex="1">
                    <mxGeometry x="1380" y="636" width="30" height="42" as="geometry"/>
                </mxCell>
                <mxCell id="4g3HLyUKp_iSWFGfKS_9-205" value="IBM" style="text;html=1;strokeColor=none;fillColor=none;align=center;verticalAlign=middle;whiteSpace=wrap;rounded=0;" parent="1" vertex="1">
                    <mxGeometry x="1430" y="656" width="70" height="30" as="geometry"/>
                </mxCell>
                <mxCell id="5" value="" style="endArrow=classic;startArrow=classic;html=1;entryX=0.5;entryY=1;entryDx=0;entryDy=0;entryPerimeter=0;exitX=0.998;exitY=0.79;exitDx=0;exitDy=0;exitPerimeter=0;rounded=0;" parent="1" source="4g3HLyUKp_iSWFGfKS_9-113" target="2" edge="1">
                    <mxGeometry width="50" height="50" relative="1" as="geometry">
                        <mxPoint x="1190" y="760" as="sourcePoint"/>
                        <mxPoint x="1240" y="710" as="targetPoint"/>
                        <Array as="points">
                            <mxPoint x="1235" y="1410"/>
                        </Array>
                    </mxGeometry>
                </mxCell>
                <mxCell id="6" value="VPN" style="text;html=1;strokeColor=none;fillColor=none;align=center;verticalAlign=middle;whiteSpace=wrap;rounded=0;" parent="1" vertex="1">
                    <mxGeometry x="280" y="250" width="60" height="30" as="geometry"/>
                </mxCell>
                <object label="VPCs" id="4g3HLyUKp_iSWFGfKS_9-83">
                    <mxCell style="" parent="0"/>
                </object>
                <mxCell id="4g3HLyUKp_iSWFGfKS_9-105" value="" style="rounded=1;arcSize=10;dashed=0;fillColor=none;gradientColor=none;strokeWidth=2;" parent="4g3HLyUKp_iSWFGfKS_9-83" vertex="1">
                    <mxGeometry x="420" y="620" width="630" height="402" as="geometry"/>
                </mxCell>
                <mxCell id="4g3HLyUKp_iSWFGfKS_9-106" value="" style="dashed=0;html=1;shape=mxgraph.aws3.virtual_private_cloud;fillColor=#F58536;gradientColor=none;dashed=0;" parent="4g3HLyUKp_iSWFGfKS_9-83" vertex="1">
                    <mxGeometry x="470" y="598" width="52" height="36" as="geometry"/>
                </mxCell>
                <mxCell id="4g3HLyUKp_iSWFGfKS_9-107" value="ACL - worker" style="shape=mxgraph.ibm.box;prType=subnet;fontStyle=0;verticalAlign=top;align=left;spacingLeft=32;spacingTop=4;fillColor=#E6F0E2;rounded=0;whiteSpace=wrap;html=1;strokeColor=#00882B;strokeWidth=1;dashed=0;container=1;spacing=-4;collapsible=0;expand=0;recursiveResize=0;" parent="4g3HLyUKp_iSWFGfKS_9-83" vertex="1">
                    <mxGeometry x="460" y="682" width="520" height="100" as="geometry"/>
                </mxCell>
                <mxCell id="4g3HLyUKp_iSWFGfKS_9-108" value="ACL - vpe" style="shape=mxgraph.ibm.box;prType=subnet;fontStyle=0;verticalAlign=top;align=left;spacingLeft=32;spacingTop=4;fillColor=#E6F0E2;rounded=0;whiteSpace=wrap;html=1;strokeColor=#00882B;strokeWidth=1;dashed=0;container=1;spacing=-4;collapsible=0;expand=0;recursiveResize=0;" parent="4g3HLyUKp_iSWFGfKS_9-83" vertex="1">
                    <mxGeometry x="460" y="794.5" width="520" height="97.5" as="geometry"/>
                </mxCell>
                <mxCell id="4g3HLyUKp_iSWFGfKS_9-109" value="ACL - ingress" style="shape=mxgraph.ibm.box;prType=subnet;fontStyle=0;verticalAlign=top;align=left;spacingLeft=32;spacingTop=4;fillColor=#E6F0E2;rounded=0;whiteSpace=wrap;html=1;strokeColor=#00882B;strokeWidth=1;dashed=0;container=1;spacing=-4;collapsible=0;expand=0;recursiveResize=0;" parent="4g3HLyUKp_iSWFGfKS_9-83" vertex="1">
                    <mxGeometry x="460" y="902" width="520" height="100" as="geometry"/>
                </mxCell>
                <mxCell id="4g3HLyUKp_iSWFGfKS_9-110" value="Availability Zone 1" style="rounded=1;arcSize=10;dashed=1;strokeColor=#F59D56;fillColor=none;gradientColor=none;dashPattern=8 4;strokeWidth=2;verticalAlign=top;" parent="4g3HLyUKp_iSWFGfKS_9-83" vertex="1">
                    <mxGeometry x="480" y="652" width="130" height="360" as="geometry"/>
                </mxCell>
                <mxCell id="4g3HLyUKp_iSWFGfKS_9-111" value="Availability Zone 2" style="rounded=1;arcSize=10;dashed=1;strokeColor=#F59D56;fillColor=none;gradientColor=none;dashPattern=8 4;strokeWidth=2;verticalAlign=top;" parent="4g3HLyUKp_iSWFGfKS_9-83" vertex="1">
                    <mxGeometry x="650" y="652" width="130" height="360" as="geometry"/>
                </mxCell>
                <mxCell id="4g3HLyUKp_iSWFGfKS_9-112" value="Availability Zone 3" style="rounded=1;arcSize=10;dashed=1;strokeColor=#F59D56;fillColor=none;gradientColor=none;dashPattern=8 4;strokeWidth=2;verticalAlign=top;" parent="4g3HLyUKp_iSWFGfKS_9-83" vertex="1">
                    <mxGeometry x="820" y="652" width="130" height="360" as="geometry"/>
                </mxCell>
                <mxCell id="4g3HLyUKp_iSWFGfKS_9-113" value="" style="rounded=1;arcSize=10;dashed=0;fillColor=none;gradientColor=none;strokeWidth=2;" parent="4g3HLyUKp_iSWFGfKS_9-83" vertex="1">
                    <mxGeometry x="420" y="1090" width="630" height="402" as="geometry"/>
                </mxCell>
                <mxCell id="4g3HLyUKp_iSWFGfKS_9-114" value="" style="dashed=0;html=1;shape=mxgraph.aws3.virtual_private_cloud;fillColor=#F58536;gradientColor=none;dashed=0;" parent="4g3HLyUKp_iSWFGfKS_9-83" vertex="1">
                    <mxGeometry x="465" y="1069" width="52" height="36" as="geometry"/>
                </mxCell>
                <mxCell id="4g3HLyUKp_iSWFGfKS_9-115" value="ACL - worker" style="shape=mxgraph.ibm.box;prType=subnet;fontStyle=0;verticalAlign=top;align=left;spacingLeft=32;spacingTop=4;fillColor=#E6F0E2;rounded=0;whiteSpace=wrap;html=1;strokeColor=#00882B;strokeWidth=1;dashed=0;container=1;spacing=-4;collapsible=0;expand=0;recursiveResize=0;" parent="4g3HLyUKp_iSWFGfKS_9-83" vertex="1">
                    <mxGeometry x="455" y="1152" width="520" height="100" as="geometry"/>
                </mxCell>
                <mxCell id="4g3HLyUKp_iSWFGfKS_9-116" value="ACL - VPE" style="shape=mxgraph.ibm.box;prType=subnet;fontStyle=0;verticalAlign=top;align=left;spacingLeft=32;spacingTop=4;fillColor=#E6F0E2;rounded=0;whiteSpace=wrap;html=1;strokeColor=#00882B;strokeWidth=1;dashed=0;container=1;spacing=-4;collapsible=0;expand=0;recursiveResize=0;" parent="4g3HLyUKp_iSWFGfKS_9-83" vertex="1">
                    <mxGeometry x="455" y="1264.5" width="520" height="97.5" as="geometry"/>
                </mxCell>
                <mxCell id="4g3HLyUKp_iSWFGfKS_9-117" value="ACL - ingress" style="shape=mxgraph.ibm.box;prType=subnet;fontStyle=0;verticalAlign=top;align=left;spacingLeft=32;spacingTop=4;fillColor=#E6F0E2;rounded=0;whiteSpace=wrap;html=1;strokeColor=#00882B;strokeWidth=1;dashed=0;container=1;spacing=-4;collapsible=0;expand=0;recursiveResize=0;" parent="4g3HLyUKp_iSWFGfKS_9-83" vertex="1">
                    <mxGeometry x="455" y="1372" width="520" height="100" as="geometry"/>
                </mxCell>
                <mxCell id="4g3HLyUKp_iSWFGfKS_9-118" value="Availability Zone 1" style="rounded=1;arcSize=10;dashed=1;strokeColor=#F59D56;fillColor=none;gradientColor=none;dashPattern=8 4;strokeWidth=2;verticalAlign=top;" parent="4g3HLyUKp_iSWFGfKS_9-83" vertex="1">
                    <mxGeometry x="475" y="1122" width="130" height="360" as="geometry"/>
                </mxCell>
                <mxCell id="4g3HLyUKp_iSWFGfKS_9-119" value="Availability Zone 2" style="rounded=1;arcSize=10;dashed=1;strokeColor=#F59D56;fillColor=none;gradientColor=none;dashPattern=8 4;strokeWidth=2;verticalAlign=top;" parent="4g3HLyUKp_iSWFGfKS_9-83" vertex="1">
                    <mxGeometry x="645" y="1122" width="130" height="360" as="geometry"/>
                </mxCell>
                <mxCell id="4g3HLyUKp_iSWFGfKS_9-120" value="Availability Zone 3" style="rounded=1;arcSize=10;dashed=1;strokeColor=#F59D56;fillColor=none;gradientColor=none;dashPattern=8 4;strokeWidth=2;verticalAlign=top;" parent="4g3HLyUKp_iSWFGfKS_9-83" vertex="1">
                    <mxGeometry x="815" y="1122" width="130" height="360" as="geometry"/>
                </mxCell>
                <mxCell id="4g3HLyUKp_iSWFGfKS_9-252" value="" style="rounded=1;arcSize=10;fillColor=none;gradientColor=none;strokeWidth=2;" parent="4g3HLyUKp_iSWFGfKS_9-83" vertex="1">
                    <mxGeometry x="1130" y="770" width="80" height="560" as="geometry"/>
                </mxCell>
                <mxCell id="4g3HLyUKp_iSWFGfKS_9-316" value="&lt;div&gt;End&lt;/div&gt;&lt;div&gt;User&lt;br&gt;&lt;/div&gt;" style="text;html=1;strokeColor=none;fillColor=none;align=center;verticalAlign=middle;whiteSpace=wrap;rounded=0;" parent="4g3HLyUKp_iSWFGfKS_9-83" vertex="1">
                    <mxGeometry x="140" y="810" width="60" height="30" as="geometry"/>
                </mxCell>
                <mxCell id="39" value="" style="rounded=1;arcSize=10;dashed=0;fillColor=none;gradientColor=none;strokeWidth=2;" parent="4g3HLyUKp_iSWFGfKS_9-83" vertex="1">
                    <mxGeometry x="420" y="160" width="630" height="400" as="geometry"/>
                </mxCell>
                <mxCell id="40" value="" style="dashed=0;html=1;shape=mxgraph.aws3.virtual_private_cloud;fillColor=#F58536;gradientColor=none;dashed=0;" parent="4g3HLyUKp_iSWFGfKS_9-83" vertex="1">
                    <mxGeometry x="460" y="139" width="52" height="36" as="geometry"/>
                </mxCell>
                <mxCell id="41" value="ACL - ingress" style="shape=mxgraph.ibm.box;prType=subnet;fontStyle=0;verticalAlign=top;align=left;spacingLeft=32;spacingTop=4;fillColor=#E6F0E2;rounded=0;whiteSpace=wrap;html=1;strokeColor=#00882B;strokeWidth=1;dashed=0;container=1;spacing=-4;collapsible=0;expand=0;recursiveResize=0;" parent="4g3HLyUKp_iSWFGfKS_9-83" vertex="1">
                    <mxGeometry x="460" y="220" width="520" height="100" as="geometry"/>
                </mxCell>
                <mxCell id="42" value="ACL - bastion" style="shape=mxgraph.ibm.box;prType=subnet;fontStyle=0;verticalAlign=top;align=left;spacingLeft=32;spacingTop=4;fillColor=#E6F0E2;rounded=0;whiteSpace=wrap;html=1;strokeColor=#00882B;strokeWidth=1;dashed=0;container=1;spacing=-4;collapsible=0;expand=0;recursiveResize=0;" parent="4g3HLyUKp_iSWFGfKS_9-83" vertex="1">
                    <mxGeometry x="460" y="332.5" width="520" height="97.5" as="geometry"/>
                </mxCell>
                <mxCell id="43" value="ACL - egress" style="shape=mxgraph.ibm.box;prType=subnet;fontStyle=0;verticalAlign=top;align=left;spacingLeft=32;spacingTop=4;fillColor=#E6F0E2;rounded=0;whiteSpace=wrap;html=1;strokeColor=#00882B;strokeWidth=1;dashed=0;container=1;spacing=-4;collapsible=0;expand=0;recursiveResize=0;" parent="4g3HLyUKp_iSWFGfKS_9-83" vertex="1">
                    <mxGeometry x="460" y="440" width="520" height="100" as="geometry"/>
                </mxCell>
                <mxCell id="44" value="Availability Zone 1" style="rounded=1;arcSize=10;dashed=1;strokeColor=#F59D56;fillColor=none;gradientColor=none;dashPattern=8 4;strokeWidth=2;verticalAlign=top;" parent="4g3HLyUKp_iSWFGfKS_9-83" vertex="1">
                    <mxGeometry x="480" y="190" width="130" height="360" as="geometry"/>
                </mxCell>
                <mxCell id="45" value="Availability Zone 2" style="rounded=1;arcSize=10;dashed=1;strokeColor=#F59D56;fillColor=none;gradientColor=none;dashPattern=8 4;strokeWidth=2;verticalAlign=top;" parent="4g3HLyUKp_iSWFGfKS_9-83" vertex="1">
                    <mxGeometry x="650" y="190" width="130" height="360" as="geometry"/>
                </mxCell>
                <mxCell id="46" value="Availability Zone 3" style="rounded=1;arcSize=10;dashed=1;strokeColor=#F59D56;fillColor=none;gradientColor=none;dashPattern=8 4;strokeWidth=2;verticalAlign=top;" parent="4g3HLyUKp_iSWFGfKS_9-83" vertex="1">
                    <mxGeometry x="820" y="190" width="130" height="360" as="geometry"/>
                </mxCell>
                <object label="Subnets" id="4g3HLyUKp_iSWFGfKS_9-18">
                    <mxCell style="" parent="0"/>
                </object>
                <mxCell id="4g3HLyUKp_iSWFGfKS_9-29" value="" style="rounded=1;arcSize=10;dashed=0;fillColor=none;gradientColor=none;strokeWidth=2;" parent="4g3HLyUKp_iSWFGfKS_9-18" vertex="1">
                    <mxGeometry x="490" y="250" width="110" height="62" as="geometry"/>
                </mxCell>
                <mxCell id="4g3HLyUKp_iSWFGfKS_9-30" value="" style="dashed=0;html=1;shape=mxgraph.aws3.permissions;fillColor=#D9A741;gradientColor=none;dashed=0;aspect=fixed;" parent="4g3HLyUKp_iSWFGfKS_9-18" vertex="1">
                    <mxGeometry x="494" y="239" width="17.13" height="20" as="geometry"/>
                </mxCell>
                <mxCell id="4g3HLyUKp_iSWFGfKS_9-32" value="" style="rounded=1;arcSize=10;dashed=0;fillColor=none;gradientColor=none;strokeWidth=2;" parent="4g3HLyUKp_iSWFGfKS_9-18" vertex="1">
                    <mxGeometry x="490" y="360" width="110" height="66" as="geometry"/>
                </mxCell>
                <mxCell id="4g3HLyUKp_iSWFGfKS_9-34" value="" style="rounded=1;arcSize=10;dashed=0;fillColor=none;gradientColor=none;strokeWidth=2;" parent="4g3HLyUKp_iSWFGfKS_9-18" vertex="1">
                    <mxGeometry x="490" y="470" width="110" height="64" as="geometry"/>
                </mxCell>
                <mxCell id="4g3HLyUKp_iSWFGfKS_9-38" value="" style="dashed=0;html=1;shape=mxgraph.aws3.permissions;fillColor=#D9A741;gradientColor=none;dashed=0;aspect=fixed;" parent="4g3HLyUKp_iSWFGfKS_9-18" vertex="1">
                    <mxGeometry x="494" y="350" width="17.13" height="20" as="geometry"/>
                </mxCell>
                <mxCell id="4g3HLyUKp_iSWFGfKS_9-39" value="" style="dashed=0;html=1;shape=mxgraph.aws3.permissions;fillColor=#D9A741;gradientColor=none;dashed=0;aspect=fixed;" parent="4g3HLyUKp_iSWFGfKS_9-18" vertex="1">
                    <mxGeometry x="494" y="460" width="17.13" height="20" as="geometry"/>
                </mxCell>
                <mxCell id="4g3HLyUKp_iSWFGfKS_9-61" value="" style="rounded=1;arcSize=10;dashed=0;fillColor=none;gradientColor=none;strokeWidth=2;" parent="4g3HLyUKp_iSWFGfKS_9-18" vertex="1">
                    <mxGeometry x="660" y="251" width="110" height="62" as="geometry"/>
                </mxCell>
                <mxCell id="4g3HLyUKp_iSWFGfKS_9-62" value="" style="dashed=0;html=1;shape=mxgraph.aws3.permissions;fillColor=#D9A741;gradientColor=none;dashed=0;aspect=fixed;" parent="4g3HLyUKp_iSWFGfKS_9-18" vertex="1">
                    <mxGeometry x="664" y="240" width="17.13" height="20" as="geometry"/>
                </mxCell>
                <mxCell id="4g3HLyUKp_iSWFGfKS_9-63" value="" style="rounded=1;arcSize=10;dashed=0;fillColor=none;gradientColor=none;strokeWidth=2;" parent="4g3HLyUKp_iSWFGfKS_9-18" vertex="1">
                    <mxGeometry x="660" y="361" width="110" height="66" as="geometry"/>
                </mxCell>
                <mxCell id="4g3HLyUKp_iSWFGfKS_9-64" value="" style="rounded=1;arcSize=10;dashed=0;fillColor=none;gradientColor=none;strokeWidth=2;" parent="4g3HLyUKp_iSWFGfKS_9-18" vertex="1">
                    <mxGeometry x="660" y="471" width="110" height="64" as="geometry"/>
                </mxCell>
                <mxCell id="4g3HLyUKp_iSWFGfKS_9-65" value="" style="dashed=0;html=1;shape=mxgraph.aws3.permissions;fillColor=#D9A741;gradientColor=none;dashed=0;aspect=fixed;" parent="4g3HLyUKp_iSWFGfKS_9-18" vertex="1">
                    <mxGeometry x="664" y="351" width="17.13" height="20" as="geometry"/>
                </mxCell>
                <mxCell id="4g3HLyUKp_iSWFGfKS_9-66" value="" style="dashed=0;html=1;shape=mxgraph.aws3.permissions;fillColor=#D9A741;gradientColor=none;dashed=0;aspect=fixed;" parent="4g3HLyUKp_iSWFGfKS_9-18" vertex="1">
                    <mxGeometry x="664" y="461" width="17.13" height="20" as="geometry"/>
                </mxCell>
                <mxCell id="4g3HLyUKp_iSWFGfKS_9-67" value="" style="rounded=1;arcSize=10;dashed=0;fillColor=none;gradientColor=none;strokeWidth=2;" parent="4g3HLyUKp_iSWFGfKS_9-18" vertex="1">
                    <mxGeometry x="830" y="251" width="110" height="62" as="geometry"/>
                </mxCell>
                <mxCell id="4g3HLyUKp_iSWFGfKS_9-68" value="" style="dashed=0;html=1;shape=mxgraph.aws3.permissions;fillColor=#D9A741;gradientColor=none;dashed=0;aspect=fixed;" parent="4g3HLyUKp_iSWFGfKS_9-18" vertex="1">
                    <mxGeometry x="834" y="240" width="17.13" height="20" as="geometry"/>
                </mxCell>
                <mxCell id="4g3HLyUKp_iSWFGfKS_9-69" value="" style="rounded=1;arcSize=10;dashed=0;fillColor=none;gradientColor=none;strokeWidth=2;" parent="4g3HLyUKp_iSWFGfKS_9-18" vertex="1">
                    <mxGeometry x="830" y="361" width="110" height="66" as="geometry"/>
                </mxCell>
                <mxCell id="4g3HLyUKp_iSWFGfKS_9-70" value="" style="rounded=1;arcSize=10;dashed=0;fillColor=none;gradientColor=none;strokeWidth=2;" parent="4g3HLyUKp_iSWFGfKS_9-18" vertex="1">
                    <mxGeometry x="830" y="471" width="110" height="64" as="geometry"/>
                </mxCell>
                <mxCell id="4g3HLyUKp_iSWFGfKS_9-71" value="" style="dashed=0;html=1;shape=mxgraph.aws3.permissions;fillColor=#D9A741;gradientColor=none;dashed=0;aspect=fixed;" parent="4g3HLyUKp_iSWFGfKS_9-18" vertex="1">
                    <mxGeometry x="834" y="351" width="17.13" height="20" as="geometry"/>
                </mxCell>
                <mxCell id="4g3HLyUKp_iSWFGfKS_9-72" value="" style="dashed=0;html=1;shape=mxgraph.aws3.permissions;fillColor=#D9A741;gradientColor=none;dashed=0;aspect=fixed;" parent="4g3HLyUKp_iSWFGfKS_9-18" vertex="1">
                    <mxGeometry x="834" y="461" width="17.13" height="20" as="geometry"/>
                </mxCell>
                <mxCell id="4g3HLyUKp_iSWFGfKS_9-73" value="Subnet - &lt;br&gt;ingress01" style="text;html=1;strokeColor=none;fillColor=none;align=left;verticalAlign=middle;whiteSpace=wrap;rounded=0;" parent="4g3HLyUKp_iSWFGfKS_9-18" vertex="1">
                    <mxGeometry x="511.13" y="251" width="106" height="29" as="geometry"/>
                </mxCell>
                <mxCell id="4g3HLyUKp_iSWFGfKS_9-74" value="Subnet - &lt;br&gt;ingress02" style="text;html=1;strokeColor=none;fillColor=none;align=left;verticalAlign=middle;whiteSpace=wrap;rounded=0;" parent="4g3HLyUKp_iSWFGfKS_9-18" vertex="1">
                    <mxGeometry x="681.13" y="251" width="106" height="29" as="geometry"/>
                </mxCell>
                <mxCell id="4g3HLyUKp_iSWFGfKS_9-75" value="Subnet - &lt;br&gt;ingress03" style="text;html=1;strokeColor=none;fillColor=none;align=left;verticalAlign=middle;whiteSpace=wrap;rounded=0;" parent="4g3HLyUKp_iSWFGfKS_9-18" vertex="1">
                    <mxGeometry x="851.13" y="251" width="106" height="29" as="geometry"/>
                </mxCell>
                <mxCell id="4g3HLyUKp_iSWFGfKS_9-76" value="Subnet - &lt;br&gt;bastion01" style="text;html=1;strokeColor=none;fillColor=none;align=left;verticalAlign=middle;whiteSpace=wrap;rounded=0;" parent="4g3HLyUKp_iSWFGfKS_9-18" vertex="1">
                    <mxGeometry x="511.13" y="361" width="106" height="29" as="geometry"/>
                </mxCell>
                <mxCell id="4g3HLyUKp_iSWFGfKS_9-77" value="Subnet - &lt;br&gt;bastion02" style="text;html=1;strokeColor=none;fillColor=none;align=left;verticalAlign=middle;whiteSpace=wrap;rounded=0;" parent="4g3HLyUKp_iSWFGfKS_9-18" vertex="1">
                    <mxGeometry x="681.13" y="361" width="106" height="29" as="geometry"/>
                </mxCell>
                <mxCell id="4g3HLyUKp_iSWFGfKS_9-78" value="Subnet - &lt;br&gt;bastion03" style="text;html=1;strokeColor=none;fillColor=none;align=left;verticalAlign=middle;whiteSpace=wrap;rounded=0;" parent="4g3HLyUKp_iSWFGfKS_9-18" vertex="1">
                    <mxGeometry x="851.13" y="361" width="106" height="29" as="geometry"/>
                </mxCell>
                <mxCell id="4g3HLyUKp_iSWFGfKS_9-79" value="Subnet -&lt;br&gt;egress01" style="text;html=1;strokeColor=none;fillColor=none;align=left;verticalAlign=middle;whiteSpace=wrap;rounded=0;" parent="4g3HLyUKp_iSWFGfKS_9-18" vertex="1">
                    <mxGeometry x="511.13" y="471" width="106" height="29" as="geometry"/>
                </mxCell>
                <mxCell id="4g3HLyUKp_iSWFGfKS_9-80" value="Subnet -&lt;br&gt;egress02" style="text;html=1;strokeColor=none;fillColor=none;align=left;verticalAlign=middle;whiteSpace=wrap;rounded=0;" parent="4g3HLyUKp_iSWFGfKS_9-18" vertex="1">
                    <mxGeometry x="681.13" y="471" width="106" height="29" as="geometry"/>
                </mxCell>
                <mxCell id="4g3HLyUKp_iSWFGfKS_9-81" value="Subnet -&lt;br&gt;egress03" style="text;html=1;strokeColor=none;fillColor=none;align=left;verticalAlign=middle;whiteSpace=wrap;rounded=0;" parent="4g3HLyUKp_iSWFGfKS_9-18" vertex="1">
                    <mxGeometry x="851.13" y="471" width="106" height="29" as="geometry"/>
                </mxCell>
                <mxCell id="4g3HLyUKp_iSWFGfKS_9-121" value="" style="rounded=1;arcSize=10;dashed=0;fillColor=none;gradientColor=none;strokeWidth=2;" parent="4g3HLyUKp_iSWFGfKS_9-18" vertex="1">
                    <mxGeometry x="490" y="711" width="110" height="62" as="geometry"/>
                </mxCell>
                <mxCell id="4g3HLyUKp_iSWFGfKS_9-122" value="" style="dashed=0;html=1;shape=mxgraph.aws3.permissions;fillColor=#D9A741;gradientColor=none;dashed=0;aspect=fixed;" parent="4g3HLyUKp_iSWFGfKS_9-18" vertex="1">
                    <mxGeometry x="494" y="700" width="17.13" height="20" as="geometry"/>
                </mxCell>
                <mxCell id="4g3HLyUKp_iSWFGfKS_9-123" value="" style="rounded=1;arcSize=10;dashed=0;fillColor=none;gradientColor=none;strokeWidth=2;" parent="4g3HLyUKp_iSWFGfKS_9-18" vertex="1">
                    <mxGeometry x="490" y="821" width="110" height="66" as="geometry"/>
                </mxCell>
                <mxCell id="4g3HLyUKp_iSWFGfKS_9-124" value="" style="rounded=1;arcSize=10;dashed=0;fillColor=none;gradientColor=none;strokeWidth=2;" parent="4g3HLyUKp_iSWFGfKS_9-18" vertex="1">
                    <mxGeometry x="490" y="931" width="110" height="64" as="geometry"/>
                </mxCell>
                <mxCell id="4g3HLyUKp_iSWFGfKS_9-125" value="" style="dashed=0;html=1;shape=mxgraph.aws3.permissions;fillColor=#D9A741;gradientColor=none;dashed=0;aspect=fixed;" parent="4g3HLyUKp_iSWFGfKS_9-18" vertex="1">
                    <mxGeometry x="494" y="811" width="17.13" height="20" as="geometry"/>
                </mxCell>
                <mxCell id="4g3HLyUKp_iSWFGfKS_9-126" value="" style="dashed=0;html=1;shape=mxgraph.aws3.permissions;fillColor=#D9A741;gradientColor=none;dashed=0;aspect=fixed;" parent="4g3HLyUKp_iSWFGfKS_9-18" vertex="1">
                    <mxGeometry x="494" y="921" width="17.13" height="20" as="geometry"/>
                </mxCell>
                <mxCell id="4g3HLyUKp_iSWFGfKS_9-127" value="" style="rounded=1;arcSize=10;dashed=0;fillColor=none;gradientColor=none;strokeWidth=2;" parent="4g3HLyUKp_iSWFGfKS_9-18" vertex="1">
                    <mxGeometry x="660" y="712" width="110" height="62" as="geometry"/>
                </mxCell>
                <mxCell id="4g3HLyUKp_iSWFGfKS_9-128" value="" style="dashed=0;html=1;shape=mxgraph.aws3.permissions;fillColor=#D9A741;gradientColor=none;dashed=0;aspect=fixed;" parent="4g3HLyUKp_iSWFGfKS_9-18" vertex="1">
                    <mxGeometry x="664" y="701" width="17.13" height="20" as="geometry"/>
                </mxCell>
                <mxCell id="4g3HLyUKp_iSWFGfKS_9-129" value="" style="rounded=1;arcSize=10;dashed=0;fillColor=none;gradientColor=none;strokeWidth=2;" parent="4g3HLyUKp_iSWFGfKS_9-18" vertex="1">
                    <mxGeometry x="660" y="822" width="110" height="66" as="geometry"/>
                </mxCell>
                <mxCell id="4g3HLyUKp_iSWFGfKS_9-130" value="" style="rounded=1;arcSize=10;dashed=0;fillColor=none;gradientColor=none;strokeWidth=2;" parent="4g3HLyUKp_iSWFGfKS_9-18" vertex="1">
                    <mxGeometry x="660" y="932" width="110" height="64" as="geometry"/>
                </mxCell>
                <mxCell id="4g3HLyUKp_iSWFGfKS_9-131" value="" style="dashed=0;html=1;shape=mxgraph.aws3.permissions;fillColor=#D9A741;gradientColor=none;dashed=0;aspect=fixed;" parent="4g3HLyUKp_iSWFGfKS_9-18" vertex="1">
                    <mxGeometry x="664" y="812" width="17.13" height="20" as="geometry"/>
                </mxCell>
                <mxCell id="4g3HLyUKp_iSWFGfKS_9-132" value="" style="dashed=0;html=1;shape=mxgraph.aws3.permissions;fillColor=#D9A741;gradientColor=none;dashed=0;aspect=fixed;" parent="4g3HLyUKp_iSWFGfKS_9-18" vertex="1">
                    <mxGeometry x="664" y="922" width="17.13" height="20" as="geometry"/>
                </mxCell>
                <mxCell id="4g3HLyUKp_iSWFGfKS_9-133" value="" style="rounded=1;arcSize=10;dashed=0;fillColor=none;gradientColor=none;strokeWidth=2;" parent="4g3HLyUKp_iSWFGfKS_9-18" vertex="1">
                    <mxGeometry x="830" y="712" width="110" height="62" as="geometry"/>
                </mxCell>
                <mxCell id="4g3HLyUKp_iSWFGfKS_9-134" value="" style="dashed=0;html=1;shape=mxgraph.aws3.permissions;fillColor=#D9A741;gradientColor=none;dashed=0;aspect=fixed;" parent="4g3HLyUKp_iSWFGfKS_9-18" vertex="1">
                    <mxGeometry x="834" y="701" width="17.13" height="20" as="geometry"/>
                </mxCell>
                <mxCell id="4g3HLyUKp_iSWFGfKS_9-135" value="" style="rounded=1;arcSize=10;dashed=0;fillColor=none;gradientColor=none;strokeWidth=2;" parent="4g3HLyUKp_iSWFGfKS_9-18" vertex="1">
                    <mxGeometry x="830" y="822" width="110" height="66" as="geometry"/>
                </mxCell>
                <mxCell id="4g3HLyUKp_iSWFGfKS_9-136" value="" style="rounded=1;arcSize=10;dashed=0;fillColor=none;gradientColor=none;strokeWidth=2;" parent="4g3HLyUKp_iSWFGfKS_9-18" vertex="1">
                    <mxGeometry x="830" y="932" width="110" height="64" as="geometry"/>
                </mxCell>
                <mxCell id="4g3HLyUKp_iSWFGfKS_9-137" value="" style="dashed=0;html=1;shape=mxgraph.aws3.permissions;fillColor=#D9A741;gradientColor=none;dashed=0;aspect=fixed;" parent="4g3HLyUKp_iSWFGfKS_9-18" vertex="1">
                    <mxGeometry x="834" y="812" width="17.13" height="20" as="geometry"/>
                </mxCell>
                <mxCell id="4g3HLyUKp_iSWFGfKS_9-138" value="" style="dashed=0;html=1;shape=mxgraph.aws3.permissions;fillColor=#D9A741;gradientColor=none;dashed=0;aspect=fixed;" parent="4g3HLyUKp_iSWFGfKS_9-18" vertex="1">
                    <mxGeometry x="834" y="922" width="17.13" height="20" as="geometry"/>
                </mxCell>
                <mxCell id="4g3HLyUKp_iSWFGfKS_9-139" value="Subnet - &lt;br&gt;worker01" style="text;html=1;strokeColor=none;fillColor=none;align=left;verticalAlign=middle;whiteSpace=wrap;rounded=0;" parent="4g3HLyUKp_iSWFGfKS_9-18" vertex="1">
                    <mxGeometry x="511.13" y="712" width="106" height="29" as="geometry"/>
                </mxCell>
                <mxCell id="4g3HLyUKp_iSWFGfKS_9-140" value="Subnet - &lt;br&gt;worker02" style="text;html=1;strokeColor=none;fillColor=none;align=left;verticalAlign=middle;whiteSpace=wrap;rounded=0;" parent="4g3HLyUKp_iSWFGfKS_9-18" vertex="1">
                    <mxGeometry x="681.13" y="712" width="106" height="29" as="geometry"/>
                </mxCell>
                <mxCell id="4g3HLyUKp_iSWFGfKS_9-141" value="Subnet - &lt;br&gt;worker03" style="text;html=1;strokeColor=none;fillColor=none;align=left;verticalAlign=middle;whiteSpace=wrap;rounded=0;" parent="4g3HLyUKp_iSWFGfKS_9-18" vertex="1">
                    <mxGeometry x="851.13" y="712" width="106" height="29" as="geometry"/>
                </mxCell>
                <mxCell id="4g3HLyUKp_iSWFGfKS_9-142" value="Subnet - &lt;br&gt;vpe01" style="text;html=1;strokeColor=none;fillColor=none;align=left;verticalAlign=middle;whiteSpace=wrap;rounded=0;" parent="4g3HLyUKp_iSWFGfKS_9-18" vertex="1">
                    <mxGeometry x="511.13" y="822" width="106" height="29" as="geometry"/>
                </mxCell>
                <mxCell id="4g3HLyUKp_iSWFGfKS_9-143" value="Subnet - &lt;br&gt;vpe02" style="text;html=1;strokeColor=none;fillColor=none;align=left;verticalAlign=middle;whiteSpace=wrap;rounded=0;" parent="4g3HLyUKp_iSWFGfKS_9-18" vertex="1">
                    <mxGeometry x="681.13" y="822" width="106" height="29" as="geometry"/>
                </mxCell>
                <mxCell id="4g3HLyUKp_iSWFGfKS_9-144" value="Subnet - &lt;br&gt;vpe03" style="text;html=1;strokeColor=none;fillColor=none;align=left;verticalAlign=middle;whiteSpace=wrap;rounded=0;" parent="4g3HLyUKp_iSWFGfKS_9-18" vertex="1">
                    <mxGeometry x="851.13" y="822" width="106" height="29" as="geometry"/>
                </mxCell>
                <mxCell id="4g3HLyUKp_iSWFGfKS_9-145" value="Subnet -&lt;br&gt;ingress01" style="text;html=1;strokeColor=none;fillColor=none;align=left;verticalAlign=middle;whiteSpace=wrap;rounded=0;" parent="4g3HLyUKp_iSWFGfKS_9-18" vertex="1">
                    <mxGeometry x="511.13" y="932" width="106" height="29" as="geometry"/>
                </mxCell>
                <mxCell id="4g3HLyUKp_iSWFGfKS_9-146" value="Subnet -&lt;br&gt;ingress02" style="text;html=1;strokeColor=none;fillColor=none;align=left;verticalAlign=middle;whiteSpace=wrap;rounded=0;" parent="4g3HLyUKp_iSWFGfKS_9-18" vertex="1">
                    <mxGeometry x="681.13" y="932" width="106" height="29" as="geometry"/>
                </mxCell>
                <mxCell id="4g3HLyUKp_iSWFGfKS_9-147" value="Subnet -&lt;br&gt;ingress03" style="text;html=1;strokeColor=none;fillColor=none;align=left;verticalAlign=middle;whiteSpace=wrap;rounded=0;" parent="4g3HLyUKp_iSWFGfKS_9-18" vertex="1">
                    <mxGeometry x="851.13" y="932" width="106" height="29" as="geometry"/>
                </mxCell>
                <mxCell id="4g3HLyUKp_iSWFGfKS_9-175" value="" style="rounded=1;arcSize=10;dashed=0;fillColor=none;gradientColor=none;strokeWidth=2;" parent="4g3HLyUKp_iSWFGfKS_9-18" vertex="1">
                    <mxGeometry x="481.43" y="1181" width="110" height="62" as="geometry"/>
                </mxCell>
                <mxCell id="4g3HLyUKp_iSWFGfKS_9-176" value="" style="dashed=0;html=1;shape=mxgraph.aws3.permissions;fillColor=#D9A741;gradientColor=none;dashed=0;aspect=fixed;" parent="4g3HLyUKp_iSWFGfKS_9-18" vertex="1">
                    <mxGeometry x="485.43" y="1170" width="17.13" height="20" as="geometry"/>
                </mxCell>
                <mxCell id="4g3HLyUKp_iSWFGfKS_9-177" value="" style="rounded=1;arcSize=10;dashed=0;fillColor=none;gradientColor=none;strokeWidth=2;" parent="4g3HLyUKp_iSWFGfKS_9-18" vertex="1">
                    <mxGeometry x="481.43" y="1291" width="110" height="66" as="geometry"/>
                </mxCell>
                <mxCell id="4g3HLyUKp_iSWFGfKS_9-178" value="" style="rounded=1;arcSize=10;dashed=0;fillColor=none;gradientColor=none;strokeWidth=2;" parent="4g3HLyUKp_iSWFGfKS_9-18" vertex="1">
                    <mxGeometry x="481.43" y="1401" width="110" height="64" as="geometry"/>
                </mxCell>
                <mxCell id="4g3HLyUKp_iSWFGfKS_9-179" value="" style="dashed=0;html=1;shape=mxgraph.aws3.permissions;fillColor=#D9A741;gradientColor=none;dashed=0;aspect=fixed;" parent="4g3HLyUKp_iSWFGfKS_9-18" vertex="1">
                    <mxGeometry x="485.43" y="1281" width="17.13" height="20" as="geometry"/>
                </mxCell>
                <mxCell id="4g3HLyUKp_iSWFGfKS_9-180" value="" style="dashed=0;html=1;shape=mxgraph.aws3.permissions;fillColor=#D9A741;gradientColor=none;dashed=0;aspect=fixed;" parent="4g3HLyUKp_iSWFGfKS_9-18" vertex="1">
                    <mxGeometry x="485.43" y="1391" width="17.13" height="20" as="geometry"/>
                </mxCell>
                <mxCell id="4g3HLyUKp_iSWFGfKS_9-181" value="" style="rounded=1;arcSize=10;dashed=0;fillColor=none;gradientColor=none;strokeWidth=2;" parent="4g3HLyUKp_iSWFGfKS_9-18" vertex="1">
                    <mxGeometry x="651.43" y="1182" width="110" height="62" as="geometry"/>
                </mxCell>
                <mxCell id="4g3HLyUKp_iSWFGfKS_9-182" value="" style="dashed=0;html=1;shape=mxgraph.aws3.permissions;fillColor=#D9A741;gradientColor=none;dashed=0;aspect=fixed;" parent="4g3HLyUKp_iSWFGfKS_9-18" vertex="1">
                    <mxGeometry x="655.43" y="1171" width="17.13" height="20" as="geometry"/>
                </mxCell>
                <mxCell id="4g3HLyUKp_iSWFGfKS_9-183" value="" style="rounded=1;arcSize=10;dashed=0;fillColor=none;gradientColor=none;strokeWidth=2;" parent="4g3HLyUKp_iSWFGfKS_9-18" vertex="1">
                    <mxGeometry x="651.43" y="1292" width="110" height="66" as="geometry"/>
                </mxCell>
                <mxCell id="4g3HLyUKp_iSWFGfKS_9-184" value="" style="rounded=1;arcSize=10;dashed=0;fillColor=none;gradientColor=none;strokeWidth=2;" parent="4g3HLyUKp_iSWFGfKS_9-18" vertex="1">
                    <mxGeometry x="651.43" y="1402" width="110" height="64" as="geometry"/>
                </mxCell>
                <mxCell id="4g3HLyUKp_iSWFGfKS_9-185" value="" style="dashed=0;html=1;shape=mxgraph.aws3.permissions;fillColor=#D9A741;gradientColor=none;dashed=0;aspect=fixed;" parent="4g3HLyUKp_iSWFGfKS_9-18" vertex="1">
                    <mxGeometry x="655.43" y="1282" width="17.13" height="20" as="geometry"/>
                </mxCell>
                <mxCell id="4g3HLyUKp_iSWFGfKS_9-186" value="" style="dashed=0;html=1;shape=mxgraph.aws3.permissions;fillColor=#D9A741;gradientColor=none;dashed=0;aspect=fixed;" parent="4g3HLyUKp_iSWFGfKS_9-18" vertex="1">
                    <mxGeometry x="655.43" y="1392" width="17.13" height="20" as="geometry"/>
                </mxCell>
                <mxCell id="4g3HLyUKp_iSWFGfKS_9-187" value="" style="rounded=1;arcSize=10;dashed=0;fillColor=none;gradientColor=none;strokeWidth=2;" parent="4g3HLyUKp_iSWFGfKS_9-18" vertex="1">
                    <mxGeometry x="821.43" y="1182" width="110" height="62" as="geometry"/>
                </mxCell>
                <mxCell id="4g3HLyUKp_iSWFGfKS_9-188" value="" style="dashed=0;html=1;shape=mxgraph.aws3.permissions;fillColor=#D9A741;gradientColor=none;dashed=0;aspect=fixed;" parent="4g3HLyUKp_iSWFGfKS_9-18" vertex="1">
                    <mxGeometry x="825.43" y="1171" width="17.13" height="20" as="geometry"/>
                </mxCell>
                <mxCell id="4g3HLyUKp_iSWFGfKS_9-189" value="" style="rounded=1;arcSize=10;dashed=0;fillColor=none;gradientColor=none;strokeWidth=2;" parent="4g3HLyUKp_iSWFGfKS_9-18" vertex="1">
                    <mxGeometry x="821.43" y="1292" width="110" height="66" as="geometry"/>
                </mxCell>
                <mxCell id="4g3HLyUKp_iSWFGfKS_9-190" value="" style="rounded=1;arcSize=10;dashed=0;fillColor=none;gradientColor=none;strokeWidth=2;" parent="4g3HLyUKp_iSWFGfKS_9-18" vertex="1">
                    <mxGeometry x="821.43" y="1402" width="110" height="64" as="geometry"/>
                </mxCell>
                <mxCell id="4g3HLyUKp_iSWFGfKS_9-191" value="" style="dashed=0;html=1;shape=mxgraph.aws3.permissions;fillColor=#D9A741;gradientColor=none;dashed=0;aspect=fixed;" parent="4g3HLyUKp_iSWFGfKS_9-18" vertex="1">
                    <mxGeometry x="825.43" y="1282" width="17.13" height="20" as="geometry"/>
                </mxCell>
                <mxCell id="4g3HLyUKp_iSWFGfKS_9-192" value="" style="dashed=0;html=1;shape=mxgraph.aws3.permissions;fillColor=#D9A741;gradientColor=none;dashed=0;aspect=fixed;" parent="4g3HLyUKp_iSWFGfKS_9-18" vertex="1">
                    <mxGeometry x="825.43" y="1392" width="17.13" height="20" as="geometry"/>
                </mxCell>
                <mxCell id="4g3HLyUKp_iSWFGfKS_9-193" value="Subnet - &lt;br&gt;worker01" style="text;html=1;strokeColor=none;fillColor=none;align=left;verticalAlign=middle;whiteSpace=wrap;rounded=0;" parent="4g3HLyUKp_iSWFGfKS_9-18" vertex="1">
                    <mxGeometry x="502.56" y="1182" width="106" height="29" as="geometry"/>
                </mxCell>
                <mxCell id="4g3HLyUKp_iSWFGfKS_9-194" value="Subnet - &lt;br&gt;worker02" style="text;html=1;strokeColor=none;fillColor=none;align=left;verticalAlign=middle;whiteSpace=wrap;rounded=0;" parent="4g3HLyUKp_iSWFGfKS_9-18" vertex="1">
                    <mxGeometry x="672.56" y="1182" width="106" height="29" as="geometry"/>
                </mxCell>
                <mxCell id="4g3HLyUKp_iSWFGfKS_9-195" value="Subnet - &lt;br&gt;worker03" style="text;html=1;strokeColor=none;fillColor=none;align=left;verticalAlign=middle;whiteSpace=wrap;rounded=0;" parent="4g3HLyUKp_iSWFGfKS_9-18" vertex="1">
                    <mxGeometry x="842.56" y="1182" width="106" height="29" as="geometry"/>
                </mxCell>
                <mxCell id="4g3HLyUKp_iSWFGfKS_9-196" value="Subnet - &lt;br&gt;vpe01" style="text;html=1;strokeColor=none;fillColor=none;align=left;verticalAlign=middle;whiteSpace=wrap;rounded=0;" parent="4g3HLyUKp_iSWFGfKS_9-18" vertex="1">
                    <mxGeometry x="502.56" y="1292" width="106" height="29" as="geometry"/>
                </mxCell>
                <mxCell id="4g3HLyUKp_iSWFGfKS_9-197" value="Subnet - &lt;br&gt;vpe02" style="text;html=1;strokeColor=none;fillColor=none;align=left;verticalAlign=middle;whiteSpace=wrap;rounded=0;" parent="4g3HLyUKp_iSWFGfKS_9-18" vertex="1">
                    <mxGeometry x="672.56" y="1292" width="106" height="29" as="geometry"/>
                </mxCell>
                <mxCell id="4g3HLyUKp_iSWFGfKS_9-198" value="Subnet - &lt;br&gt;vpe03" style="text;html=1;strokeColor=none;fillColor=none;align=left;verticalAlign=middle;whiteSpace=wrap;rounded=0;" parent="4g3HLyUKp_iSWFGfKS_9-18" vertex="1">
                    <mxGeometry x="842.56" y="1292" width="106" height="29" as="geometry"/>
                </mxCell>
                <mxCell id="4g3HLyUKp_iSWFGfKS_9-199" value="Subnet -&lt;br&gt;ingress01" style="text;html=1;strokeColor=none;fillColor=none;align=left;verticalAlign=middle;whiteSpace=wrap;rounded=0;" parent="4g3HLyUKp_iSWFGfKS_9-18" vertex="1">
                    <mxGeometry x="502.56" y="1402" width="106" height="29" as="geometry"/>
                </mxCell>
                <mxCell id="4g3HLyUKp_iSWFGfKS_9-200" value="Subnet -&lt;br&gt;ingress02" style="text;html=1;strokeColor=none;fillColor=none;align=left;verticalAlign=middle;whiteSpace=wrap;rounded=0;" parent="4g3HLyUKp_iSWFGfKS_9-18" vertex="1">
                    <mxGeometry x="672.56" y="1402" width="106" height="29" as="geometry"/>
                </mxCell>
                <mxCell id="4g3HLyUKp_iSWFGfKS_9-201" value="Subnet -&lt;br&gt;ingress03" style="text;html=1;strokeColor=none;fillColor=none;align=left;verticalAlign=middle;whiteSpace=wrap;rounded=0;" parent="4g3HLyUKp_iSWFGfKS_9-18" vertex="1">
                    <mxGeometry x="842.56" y="1402" width="106" height="29" as="geometry"/>
                </mxCell>
                <object label="Devices" id="4g3HLyUKp_iSWFGfKS_9-202">
                    <mxCell style="" parent="0"/>
                </object>
                <mxCell id="4g3HLyUKp_iSWFGfKS_9-208" value="" style="pointerEvents=1;shadow=0;dashed=0;html=1;strokeColor=none;fillColor=#4495D1;labelPosition=center;verticalLabelPosition=bottom;verticalAlign=top;align=center;outlineConnect=0;shape=mxgraph.veeam.laptop;" parent="4g3HLyUKp_iSWFGfKS_9-202" vertex="1">
                    <mxGeometry x="1410" y="790" width="58.4" height="44" as="geometry"/>
                </mxCell>
                <mxCell id="4g3HLyUKp_iSWFGfKS_9-209" value="&lt;div&gt;Build&lt;/div&gt;&lt;div&gt;Computer&lt;br&gt;&lt;/div&gt;" style="text;html=1;strokeColor=none;fillColor=none;align=center;verticalAlign=middle;whiteSpace=wrap;rounded=0;" parent="4g3HLyUKp_iSWFGfKS_9-202" vertex="1">
                    <mxGeometry x="1409" y="840" width="60" height="30" as="geometry"/>
                </mxCell>
                <mxCell id="4g3HLyUKp_iSWFGfKS_9-210" value="" style="endArrow=classic;html=1;rounded=0;entryX=1.002;entryY=0.506;entryDx=0;entryDy=0;entryPerimeter=0;" parent="4g3HLyUKp_iSWFGfKS_9-202" source="4g3HLyUKp_iSWFGfKS_9-203" target="4g3HLyUKp_iSWFGfKS_9-1" edge="1">
                    <mxGeometry width="50" height="50" relative="1" as="geometry">
                        <mxPoint x="790" y="650" as="sourcePoint"/>
                        <mxPoint x="840" y="600" as="targetPoint"/>
                    </mxGeometry>
                </mxCell>
                <mxCell id="4g3HLyUKp_iSWFGfKS_9-211" value="" style="aspect=fixed;perimeter=ellipsePerimeter;html=1;align=center;shadow=0;dashed=0;fontColor=#4277BB;labelBackgroundColor=#ffffff;fontSize=12;spacingTop=3;image;image=img/lib/ibm/users/user.svg;fillColor=#CCCCCC;" parent="4g3HLyUKp_iSWFGfKS_9-202" vertex="1">
                    <mxGeometry x="170" y="191" width="60" height="60" as="geometry"/>
                </mxCell>
                <mxCell id="4g3HLyUKp_iSWFGfKS_9-212" value="" style="aspect=fixed;perimeter=ellipsePerimeter;html=1;align=center;shadow=0;dashed=0;fontColor=#4277BB;labelBackgroundColor=#ffffff;fontSize=12;spacingTop=3;image;image=img/lib/ibm/users/user.svg;fillColor=#CCCCCC;" parent="4g3HLyUKp_iSWFGfKS_9-202" vertex="1">
                    <mxGeometry x="170" y="750" width="60" height="60" as="geometry"/>
                </mxCell>
                <mxCell id="4g3HLyUKp_iSWFGfKS_9-214" value="" style="outlineConnect=0;dashed=0;verticalLabelPosition=bottom;verticalAlign=top;align=center;html=1;shape=mxgraph.aws3.application_load_balancer;fillColor=#F58536;gradientColor=none;aspect=fixed;" parent="4g3HLyUKp_iSWFGfKS_9-202" vertex="1">
                    <mxGeometry x="730" y="500" width="30.67" height="32" as="geometry"/>
                </mxCell>
                <mxCell id="4g3HLyUKp_iSWFGfKS_9-215" value="" style="outlineConnect=0;dashed=0;verticalLabelPosition=bottom;verticalAlign=top;align=center;html=1;shape=mxgraph.aws3.application_load_balancer;fillColor=#F58536;gradientColor=none;aspect=fixed;" parent="4g3HLyUKp_iSWFGfKS_9-202" vertex="1">
                    <mxGeometry x="900" y="500" width="30.67" height="32" as="geometry"/>
                </mxCell>
                <mxCell id="4g3HLyUKp_iSWFGfKS_9-303" style="edgeStyle=orthogonalEdgeStyle;rounded=0;orthogonalLoop=1;jettySize=auto;html=1;" parent="4g3HLyUKp_iSWFGfKS_9-202" target="4g3HLyUKp_iSWFGfKS_9-269" edge="1">
                    <mxGeometry relative="1" as="geometry">
                        <mxPoint x="440" y="210" as="sourcePoint"/>
                    </mxGeometry>
                </mxCell>
                <mxCell id="4g3HLyUKp_iSWFGfKS_9-218" value="" style="outlineConnect=0;dashed=0;verticalLabelPosition=bottom;verticalAlign=top;align=center;html=1;shape=mxgraph.aws3.internet_gateway;fillColor=#F58536;gradientColor=none;aspect=fixed;" parent="4g3HLyUKp_iSWFGfKS_9-202" vertex="1">
                    <mxGeometry x="390" y="188" width="49.84" height="52" as="geometry"/>
                </mxCell>
                <mxCell id="4g3HLyUKp_iSWFGfKS_9-219" value="" style="outlineConnect=0;dashed=0;verticalLabelPosition=bottom;verticalAlign=top;align=center;html=1;shape=mxgraph.aws3.internet_gateway;fillColor=#F58536;gradientColor=none;aspect=fixed;" parent="4g3HLyUKp_iSWFGfKS_9-202" vertex="1">
                    <mxGeometry x="389.99" y="900" width="49.84" height="52" as="geometry"/>
                </mxCell>
                <mxCell id="4g3HLyUKp_iSWFGfKS_9-220" value="" style="outlineConnect=0;dashed=0;verticalLabelPosition=bottom;verticalAlign=top;align=center;html=1;shape=mxgraph.aws3.internet_gateway;fillColor=#F58536;gradientColor=none;aspect=fixed;" parent="4g3HLyUKp_iSWFGfKS_9-202" vertex="1">
                    <mxGeometry x="390" y="1368" width="49.84" height="52" as="geometry"/>
                </mxCell>
                <mxCell id="4g3HLyUKp_iSWFGfKS_9-221" value="&lt;div&gt;Internet&lt;/div&gt;&lt;div&gt;Gateway&lt;br&gt;&lt;/div&gt;" style="text;html=1;strokeColor=none;fillColor=none;align=center;verticalAlign=middle;whiteSpace=wrap;rounded=0;" parent="4g3HLyUKp_iSWFGfKS_9-202" vertex="1">
                    <mxGeometry x="350" y="239" width="60" height="30" as="geometry"/>
                </mxCell>
                <mxCell id="4g3HLyUKp_iSWFGfKS_9-223" value="&lt;div&gt;Internet&lt;/div&gt;&lt;div&gt;Gateway&lt;br&gt;&lt;/div&gt;" style="text;html=1;strokeColor=none;fillColor=none;align=center;verticalAlign=middle;whiteSpace=wrap;rounded=0;" parent="4g3HLyUKp_iSWFGfKS_9-202" vertex="1">
                    <mxGeometry x="350" y="952" width="60" height="30" as="geometry"/>
                </mxCell>
                <mxCell id="4g3HLyUKp_iSWFGfKS_9-224" value="&lt;div&gt;Internet&lt;/div&gt;&lt;div&gt;Gateway&lt;br&gt;&lt;/div&gt;" style="text;html=1;strokeColor=none;fillColor=none;align=center;verticalAlign=middle;whiteSpace=wrap;rounded=0;" parent="4g3HLyUKp_iSWFGfKS_9-202" vertex="1">
                    <mxGeometry x="350" y="1420" width="60" height="30" as="geometry"/>
                </mxCell>
                <mxCell id="4g3HLyUKp_iSWFGfKS_9-225" value="&lt;div&gt;NAT&lt;/div&gt;&lt;div&gt;Gateways&lt;br&gt;&lt;/div&gt;" style="text;html=1;strokeColor=none;fillColor=none;align=center;verticalAlign=middle;whiteSpace=wrap;rounded=0;" parent="4g3HLyUKp_iSWFGfKS_9-202" vertex="1">
                    <mxGeometry x="360" y="450" width="60" height="30" as="geometry"/>
                </mxCell>
                <mxCell id="4g3HLyUKp_iSWFGfKS_9-230" style="edgeStyle=orthogonalEdgeStyle;rounded=0;orthogonalLoop=1;jettySize=auto;html=1;exitX=1;exitY=0.36;exitDx=0;exitDy=0;exitPerimeter=0;" parent="4g3HLyUKp_iSWFGfKS_9-202" source="4g3HLyUKp_iSWFGfKS_9-226" target="4g3HLyUKp_iSWFGfKS_9-218" edge="1">
                    <mxGeometry relative="1" as="geometry"/>
                </mxCell>
                <mxCell id="4g3HLyUKp_iSWFGfKS_9-226" value="" style="outlineConnect=0;dashed=0;verticalLabelPosition=bottom;verticalAlign=top;align=center;html=1;shape=mxgraph.aws3.vpn_connection;fillColor=#F58536;gradientColor=none;" parent="4g3HLyUKp_iSWFGfKS_9-202" vertex="1">
                    <mxGeometry x="283.5" y="197" width="58.5" height="48" as="geometry"/>
                </mxCell>
                <mxCell id="4g3HLyUKp_iSWFGfKS_9-227" value="&lt;div&gt;Remote&lt;/div&gt;&lt;div&gt;Employee&lt;br&gt;&lt;/div&gt;" style="text;html=1;strokeColor=none;fillColor=none;align=center;verticalAlign=middle;whiteSpace=wrap;rounded=0;" parent="4g3HLyUKp_iSWFGfKS_9-202" vertex="1">
                    <mxGeometry x="170" y="269" width="60" height="30" as="geometry"/>
                </mxCell>
                <mxCell id="4g3HLyUKp_iSWFGfKS_9-228" value="" style="endArrow=classic;html=1;rounded=0;" parent="4g3HLyUKp_iSWFGfKS_9-202" source="4g3HLyUKp_iSWFGfKS_9-211" target="4g3HLyUKp_iSWFGfKS_9-226" edge="1">
                    <mxGeometry width="50" height="50" relative="1" as="geometry">
                        <mxPoint x="280" y="120" as="sourcePoint"/>
                        <mxPoint x="330" y="70" as="targetPoint"/>
                    </mxGeometry>
                </mxCell>
                <mxCell id="4g3HLyUKp_iSWFGfKS_9-233" value="" style="endArrow=classic;html=1;rounded=0;entryX=1;entryY=0.5;entryDx=0;entryDy=0;entryPerimeter=0;exitX=0.5;exitY=1;exitDx=0;exitDy=0;exitPerimeter=0;" parent="4g3HLyUKp_iSWFGfKS_9-202" source="4g3HLyUKp_iSWFGfKS_9-213" edge="1">
                    <mxGeometry width="50" height="50" relative="1" as="geometry">
                        <mxPoint x="790" y="560" as="sourcePoint"/>
                        <mxPoint x="439.8299999999999" y="436" as="targetPoint"/>
                        <Array as="points">
                            <mxPoint x="565" y="436"/>
                            <mxPoint x="460" y="436"/>
                        </Array>
                    </mxGeometry>
                </mxCell>
                <mxCell id="4g3HLyUKp_iSWFGfKS_9-235" value="" style="endArrow=none;html=1;rounded=0;entryX=0.5;entryY=0;entryDx=0;entryDy=0;entryPerimeter=0;startArrow=none;exitX=1;exitY=0.5;exitDx=0;exitDy=0;exitPerimeter=0;" parent="4g3HLyUKp_iSWFGfKS_9-202" target="4g3HLyUKp_iSWFGfKS_9-214" edge="1">
                    <mxGeometry width="50" height="50" relative="1" as="geometry">
                        <mxPoint x="439.8299999999999" y="436" as="sourcePoint"/>
                        <mxPoint x="840" y="500" as="targetPoint"/>
                        <Array as="points">
                            <mxPoint x="745" y="436"/>
                        </Array>
                    </mxGeometry>
                </mxCell>
                <mxCell id="4g3HLyUKp_iSWFGfKS_9-236" value="" style="endArrow=none;html=1;rounded=0;entryX=0.5;entryY=0;entryDx=0;entryDy=0;entryPerimeter=0;exitX=1;exitY=0.5;exitDx=0;exitDy=0;exitPerimeter=0;" parent="4g3HLyUKp_iSWFGfKS_9-202" target="4g3HLyUKp_iSWFGfKS_9-215" edge="1">
                    <mxGeometry width="50" height="50" relative="1" as="geometry">
                        <mxPoint x="439.8299999999999" y="436" as="sourcePoint"/>
                        <mxPoint x="840" y="500" as="targetPoint"/>
                        <Array as="points">
                            <mxPoint x="915" y="436"/>
                        </Array>
                    </mxGeometry>
                </mxCell>
                <mxCell id="4g3HLyUKp_iSWFGfKS_9-237" value="" style="outlineConnect=0;dashed=0;verticalLabelPosition=bottom;verticalAlign=top;align=center;html=1;shape=mxgraph.aws3.vpc_peering;fillColor=#F58534;gradientColor=none;aspect=fixed;" parent="4g3HLyUKp_iSWFGfKS_9-202" vertex="1">
                    <mxGeometry x="1060" y="556" width="49.83" height="52" as="geometry"/>
                </mxCell>
                <mxCell id="4g3HLyUKp_iSWFGfKS_9-243" value="" style="endArrow=classic;startArrow=classic;html=1;rounded=0;entryX=0.5;entryY=1;entryDx=0;entryDy=0;entryPerimeter=0;exitX=1.001;exitY=0.223;exitDx=0;exitDy=0;exitPerimeter=0;" parent="4g3HLyUKp_iSWFGfKS_9-202" source="4g3HLyUKp_iSWFGfKS_9-105" target="4g3HLyUKp_iSWFGfKS_9-237" edge="1">
                    <mxGeometry width="50" height="50" relative="1" as="geometry">
                        <mxPoint x="1060" y="700" as="sourcePoint"/>
                        <mxPoint x="1110" y="650" as="targetPoint"/>
                        <Array as="points">
                            <mxPoint x="1085" y="710"/>
                        </Array>
                    </mxGeometry>
                </mxCell>
                <mxCell id="4g3HLyUKp_iSWFGfKS_9-244" value="&lt;div&gt;VPC&lt;/div&gt;&lt;div&gt;Peer&lt;/div&gt;&lt;div&gt;Connection&lt;br&gt;&lt;/div&gt;" style="text;html=1;strokeColor=none;fillColor=none;align=center;verticalAlign=middle;whiteSpace=wrap;rounded=0;" parent="4g3HLyUKp_iSWFGfKS_9-202" vertex="1">
                    <mxGeometry x="999.9999999999999" y="571" width="60" height="30" as="geometry"/>
                </mxCell>
                <mxCell id="4g3HLyUKp_iSWFGfKS_9-245" value="" style="outlineConnect=0;dashed=0;verticalLabelPosition=bottom;verticalAlign=top;align=center;html=1;shape=mxgraph.aws3.vpc_peering;fillColor=#F58534;gradientColor=none;aspect=fixed;" parent="4g3HLyUKp_iSWFGfKS_9-202" vertex="1">
                    <mxGeometry x="1060" y="1040" width="49.83" height="52" as="geometry"/>
                </mxCell>
                <mxCell id="4g3HLyUKp_iSWFGfKS_9-246" value="&lt;div&gt;VPC&lt;/div&gt;&lt;div&gt;Peer&lt;/div&gt;&lt;div&gt;Connection&lt;br&gt;&lt;/div&gt;" style="text;html=1;strokeColor=none;fillColor=none;align=center;verticalAlign=middle;whiteSpace=wrap;rounded=0;" parent="4g3HLyUKp_iSWFGfKS_9-202" vertex="1">
                    <mxGeometry x="999.9999999999999" y="1051" width="60" height="30" as="geometry"/>
                </mxCell>
                <mxCell id="4g3HLyUKp_iSWFGfKS_9-247" value="" style="endArrow=classic;startArrow=classic;html=1;rounded=0;exitX=0.5;exitY=0;exitDx=0;exitDy=0;exitPerimeter=0;entryX=0.999;entryY=0.796;entryDx=0;entryDy=0;entryPerimeter=0;" parent="4g3HLyUKp_iSWFGfKS_9-202" source="4g3HLyUKp_iSWFGfKS_9-245" target="4g3HLyUKp_iSWFGfKS_9-105" edge="1">
                    <mxGeometry width="50" height="50" relative="1" as="geometry">
                        <mxPoint x="1060" y="1020" as="sourcePoint"/>
                        <mxPoint x="1110" y="970" as="targetPoint"/>
                        <Array as="points">
                            <mxPoint x="1085" y="940"/>
                        </Array>
                    </mxGeometry>
                </mxCell>
                <mxCell id="4g3HLyUKp_iSWFGfKS_9-248" value="" style="endArrow=classic;startArrow=classic;html=1;rounded=0;entryX=0.5;entryY=1;entryDx=0;entryDy=0;entryPerimeter=0;exitX=1.001;exitY=0.21;exitDx=0;exitDy=0;exitPerimeter=0;" parent="4g3HLyUKp_iSWFGfKS_9-202" source="4g3HLyUKp_iSWFGfKS_9-113" target="4g3HLyUKp_iSWFGfKS_9-245" edge="1">
                    <mxGeometry width="50" height="50" relative="1" as="geometry">
                        <mxPoint x="1040" y="1160" as="sourcePoint"/>
                        <mxPoint x="1090" y="1110" as="targetPoint"/>
                        <Array as="points">
                            <mxPoint x="1085" y="1174"/>
                        </Array>
                    </mxGeometry>
                </mxCell>
                <mxCell id="4g3HLyUKp_iSWFGfKS_9-250" value="" style="outlineConnect=0;dashed=0;verticalLabelPosition=bottom;verticalAlign=top;align=center;html=1;shape=mxgraph.aws3.monitoring;fillColor=#759C3E;gradientColor=none;aspect=fixed;" parent="4g3HLyUKp_iSWFGfKS_9-202" vertex="1">
                    <mxGeometry x="1147.49" y="870" width="45" height="37.5" as="geometry"/>
                </mxCell>
                <mxCell id="4g3HLyUKp_iSWFGfKS_9-251" value="Monitoring" style="text;html=1;strokeColor=none;fillColor=none;align=center;verticalAlign=middle;whiteSpace=wrap;rounded=0;" parent="4g3HLyUKp_iSWFGfKS_9-202" vertex="1">
                    <mxGeometry x="1139.99" y="907.5" width="60" height="30" as="geometry"/>
                </mxCell>
                <mxCell id="4g3HLyUKp_iSWFGfKS_9-253" value="&lt;div&gt;Cloud&lt;/div&gt;&lt;div&gt;Services&lt;br&gt;&lt;/div&gt;" style="text;html=1;strokeColor=none;fillColor=none;align=center;verticalAlign=middle;whiteSpace=wrap;rounded=0;" parent="4g3HLyUKp_iSWFGfKS_9-202" vertex="1">
                    <mxGeometry x="1140.49" y="780" width="60" height="30" as="geometry"/>
                </mxCell>
                <mxCell id="4g3HLyUKp_iSWFGfKS_9-254" value="" style="outlineConnect=0;dashed=0;verticalLabelPosition=bottom;verticalAlign=top;align=center;html=1;shape=mxgraph.aws3.s3;fillColor=#E05243;gradientColor=none;aspect=fixed;" parent="4g3HLyUKp_iSWFGfKS_9-202" vertex="1">
                    <mxGeometry x="1142.58" y="961" width="51.82" height="63" as="geometry"/>
                </mxCell>
                <mxCell id="4g3HLyUKp_iSWFGfKS_9-255" value="S3 Storage" style="text;html=1;strokeColor=none;fillColor=none;align=center;verticalAlign=middle;whiteSpace=wrap;rounded=0;" parent="4g3HLyUKp_iSWFGfKS_9-202" vertex="1">
                    <mxGeometry x="1140.49" y="1024" width="60" height="30" as="geometry"/>
                </mxCell>
                <mxCell id="4g3HLyUKp_iSWFGfKS_9-256" value="" style="aspect=fixed;perimeter=ellipsePerimeter;html=1;align=center;shadow=0;dashed=0;fontColor=#4277BB;labelBackgroundColor=#ffffff;fontSize=12;spacingTop=3;image;image=img/lib/ibm/vpc/Key.svg;fillColor=#CCCCCC;" parent="4g3HLyUKp_iSWFGfKS_9-202" vertex="1">
                    <mxGeometry x="1143.49" y="1070" width="50" height="50" as="geometry"/>
                </mxCell>
                <mxCell id="4g3HLyUKp_iSWFGfKS_9-257" value="&lt;div&gt;Key&lt;/div&gt;&lt;div&gt;Management&lt;br&gt;&lt;/div&gt;" style="text;html=1;strokeColor=none;fillColor=none;align=center;verticalAlign=middle;whiteSpace=wrap;rounded=0;" parent="4g3HLyUKp_iSWFGfKS_9-202" vertex="1">
                    <mxGeometry x="1138.49" y="1130" width="60" height="30" as="geometry"/>
                </mxCell>
                <mxCell id="4g3HLyUKp_iSWFGfKS_9-258" value="" style="sketch=0;points=[[0,0,0],[0.25,0,0],[0.5,0,0],[0.75,0,0],[1,0,0],[0,1,0],[0.25,1,0],[0.5,1,0],[0.75,1,0],[1,1,0],[0,0.25,0],[0,0.5,0],[0,0.75,0],[1,0.25,0],[1,0.5,0],[1,0.75,0]];outlineConnect=0;fontColor=#232F3E;gradientColor=#945DF2;gradientDirection=north;fillColor=#5A30B5;strokeColor=#ffffff;dashed=0;verticalLabelPosition=bottom;verticalAlign=top;align=center;html=1;fontSize=12;fontStyle=0;aspect=fixed;shape=mxgraph.aws4.resourceIcon;resIcon=mxgraph.aws4.route_53;" parent="4g3HLyUKp_iSWFGfKS_9-202" vertex="1">
                    <mxGeometry x="990" y="1330" width="48" height="48" as="geometry"/>
                </mxCell>
                <mxCell id="4g3HLyUKp_iSWFGfKS_9-259" value="" style="sketch=0;points=[[0,0,0],[0.25,0,0],[0.5,0,0],[0.75,0,0],[1,0,0],[0,1,0],[0.25,1,0],[0.5,1,0],[0.75,1,0],[1,1,0],[0,0.25,0],[0,0.5,0],[0,0.75,0],[1,0.25,0],[1,0.5,0],[1,0.75,0]];outlineConnect=0;fontColor=#232F3E;gradientColor=#945DF2;gradientDirection=north;fillColor=#5A30B5;strokeColor=#ffffff;dashed=0;verticalLabelPosition=bottom;verticalAlign=top;align=center;html=1;fontSize=12;fontStyle=0;aspect=fixed;shape=mxgraph.aws4.resourceIcon;resIcon=mxgraph.aws4.route_53;" parent="4g3HLyUKp_iSWFGfKS_9-202" vertex="1">
                    <mxGeometry x="992" y="680" width="48" height="48" as="geometry"/>
                </mxCell>
                <mxCell id="4g3HLyUKp_iSWFGfKS_9-260" value="" style="sketch=0;outlineConnect=0;fontColor=#232F3E;gradientColor=none;fillColor=#3F8624;strokeColor=none;dashed=0;verticalLabelPosition=bottom;verticalAlign=top;align=center;html=1;fontSize=12;fontStyle=0;aspect=fixed;pointerEvents=1;shape=mxgraph.aws4.certificate_manager;" parent="4g3HLyUKp_iSWFGfKS_9-202" vertex="1">
                    <mxGeometry x="1142.58" y="1172" width="43.87" height="58" as="geometry"/>
                </mxCell>
                <mxCell id="4g3HLyUKp_iSWFGfKS_9-261" value="&lt;div&gt;Certificate&lt;/div&gt;&lt;div&gt;Manager&lt;br&gt;&lt;/div&gt;" style="text;html=1;strokeColor=none;fillColor=none;align=center;verticalAlign=middle;whiteSpace=wrap;rounded=0;" parent="4g3HLyUKp_iSWFGfKS_9-202" vertex="1">
                    <mxGeometry x="1137.51" y="1232" width="60" height="30" as="geometry"/>
                </mxCell>
                <mxCell id="4g3HLyUKp_iSWFGfKS_9-262" value="" style="outlineConnect=0;dashed=0;verticalLabelPosition=bottom;verticalAlign=top;align=center;html=1;shape=mxgraph.aws3.vpn_gateway;fillColor=#F58536;gradientColor=none;aspect=fixed;" parent="4g3HLyUKp_iSWFGfKS_9-202" vertex="1">
                    <mxGeometry x="560" y="277" width="31.62" height="33" as="geometry"/>
                </mxCell>
                <mxCell id="4g3HLyUKp_iSWFGfKS_9-263" value="" style="outlineConnect=0;dashed=0;verticalLabelPosition=bottom;verticalAlign=top;align=center;html=1;shape=mxgraph.aws3.vpn_gateway;fillColor=#F58536;gradientColor=none;aspect=fixed;" parent="4g3HLyUKp_iSWFGfKS_9-202" vertex="1">
                    <mxGeometry x="730" y="277" width="31.62" height="33" as="geometry"/>
                </mxCell>
                <mxCell id="4g3HLyUKp_iSWFGfKS_9-264" value="" style="outlineConnect=0;dashed=0;verticalLabelPosition=bottom;verticalAlign=top;align=center;html=1;shape=mxgraph.aws3.vpn_gateway;fillColor=#F58536;gradientColor=none;aspect=fixed;" parent="4g3HLyUKp_iSWFGfKS_9-202" vertex="1">
                    <mxGeometry x="906" y="277" width="31.62" height="33" as="geometry"/>
                </mxCell>
                <mxCell id="4g3HLyUKp_iSWFGfKS_9-265" value="" style="outlineConnect=0;dashed=0;verticalLabelPosition=bottom;verticalAlign=top;align=center;html=1;shape=mxgraph.aws3.application_load_balancer;fillColor=#F58536;gradientColor=none;aspect=fixed;" parent="4g3HLyUKp_iSWFGfKS_9-202" vertex="1">
                    <mxGeometry x="560.95" y="390" width="30.67" height="32" as="geometry"/>
                </mxCell>
                <mxCell id="4g3HLyUKp_iSWFGfKS_9-213" value="" style="outlineConnect=0;dashed=0;verticalLabelPosition=bottom;verticalAlign=top;align=center;html=1;shape=mxgraph.aws3.application_load_balancer;fillColor=#F58536;gradientColor=none;aspect=fixed;" parent="4g3HLyUKp_iSWFGfKS_9-202" vertex="1">
                    <mxGeometry x="550" y="500" width="30.67" height="32" as="geometry"/>
                </mxCell>
                <mxCell id="4g3HLyUKp_iSWFGfKS_9-267" value="" style="outlineConnect=0;dashed=0;verticalLabelPosition=bottom;verticalAlign=top;align=center;html=1;shape=mxgraph.aws3.application_load_balancer;fillColor=#F58536;gradientColor=none;aspect=fixed;" parent="4g3HLyUKp_iSWFGfKS_9-202" vertex="1">
                    <mxGeometry x="730" y="390" width="30.67" height="32" as="geometry"/>
                </mxCell>
                <mxCell id="4g3HLyUKp_iSWFGfKS_9-268" value="" style="outlineConnect=0;dashed=0;verticalLabelPosition=bottom;verticalAlign=top;align=center;html=1;shape=mxgraph.aws3.application_load_balancer;fillColor=#F58536;gradientColor=none;aspect=fixed;" parent="4g3HLyUKp_iSWFGfKS_9-202" vertex="1">
                    <mxGeometry x="900" y="390" width="30.67" height="32" as="geometry"/>
                </mxCell>
                <mxCell id="4g3HLyUKp_iSWFGfKS_9-269" value="" style="outlineConnect=0;dashed=0;verticalLabelPosition=bottom;verticalAlign=top;align=center;html=1;shape=mxgraph.aws3.endpoints;fillColor=#F58536;gradientColor=none;aspect=fixed;" parent="4g3HLyUKp_iSWFGfKS_9-202" vertex="1">
                    <mxGeometry x="490" y="277.5" width="30.67" height="32" as="geometry"/>
                </mxCell>
                <mxCell id="4g3HLyUKp_iSWFGfKS_9-270" value="" style="outlineConnect=0;dashed=0;verticalLabelPosition=bottom;verticalAlign=top;align=center;html=1;shape=mxgraph.aws3.endpoints;fillColor=#F58536;gradientColor=none;aspect=fixed;" parent="4g3HLyUKp_iSWFGfKS_9-202" vertex="1">
                    <mxGeometry x="660" y="278" width="30.67" height="32" as="geometry"/>
                </mxCell>
                <mxCell id="4g3HLyUKp_iSWFGfKS_9-271" value="" style="outlineConnect=0;dashed=0;verticalLabelPosition=bottom;verticalAlign=top;align=center;html=1;shape=mxgraph.aws3.endpoints;fillColor=#F58536;gradientColor=none;aspect=fixed;" parent="4g3HLyUKp_iSWFGfKS_9-202" vertex="1">
                    <mxGeometry x="830" y="278" width="30.67" height="32" as="geometry"/>
                </mxCell>
                <mxCell id="4g3HLyUKp_iSWFGfKS_9-272" value="" style="endArrow=classic;html=1;rounded=0;" parent="4g3HLyUKp_iSWFGfKS_9-202" source="4g3HLyUKp_iSWFGfKS_9-269" target="4g3HLyUKp_iSWFGfKS_9-262" edge="1">
                    <mxGeometry width="50" height="50" relative="1" as="geometry">
                        <mxPoint x="310" y="370" as="sourcePoint"/>
                        <mxPoint x="360" y="320" as="targetPoint"/>
                    </mxGeometry>
                </mxCell>
                <mxCell id="4g3HLyUKp_iSWFGfKS_9-273" value="" style="endArrow=classic;html=1;rounded=0;entryX=0;entryY=0.5;entryDx=0;entryDy=0;entryPerimeter=0;" parent="4g3HLyUKp_iSWFGfKS_9-202" source="4g3HLyUKp_iSWFGfKS_9-270" target="4g3HLyUKp_iSWFGfKS_9-263" edge="1">
                    <mxGeometry width="50" height="50" relative="1" as="geometry">
                        <mxPoint x="750" y="130" as="sourcePoint"/>
                        <mxPoint x="800" y="80" as="targetPoint"/>
                    </mxGeometry>
                </mxCell>
                <mxCell id="4g3HLyUKp_iSWFGfKS_9-274" value="" style="endArrow=classic;html=1;rounded=0;entryX=0;entryY=0.5;entryDx=0;entryDy=0;entryPerimeter=0;" parent="4g3HLyUKp_iSWFGfKS_9-202" source="4g3HLyUKp_iSWFGfKS_9-271" target="4g3HLyUKp_iSWFGfKS_9-264" edge="1">
                    <mxGeometry width="50" height="50" relative="1" as="geometry">
                        <mxPoint x="770" y="180" as="sourcePoint"/>
                        <mxPoint x="820" y="130" as="targetPoint"/>
                    </mxGeometry>
                </mxCell>
                <mxCell id="4g3HLyUKp_iSWFGfKS_9-275" value="" style="outlineConnect=0;dashed=0;verticalLabelPosition=bottom;verticalAlign=top;align=center;html=1;shape=mxgraph.aws3.classic_load_balancer;fillColor=#F58536;gradientColor=none;aspect=fixed;" parent="4g3HLyUKp_iSWFGfKS_9-202" vertex="1">
                    <mxGeometry x="1000" y="310" width="28.75" height="30" as="geometry"/>
                </mxCell>
                <mxCell id="4g3HLyUKp_iSWFGfKS_9-276" value="" style="endArrow=classic;html=1;rounded=0;exitX=0.5;exitY=1;exitDx=0;exitDy=0;entryX=0;entryY=0.5;entryDx=0;entryDy=0;entryPerimeter=0;" parent="4g3HLyUKp_iSWFGfKS_9-202" source="4g3HLyUKp_iSWFGfKS_9-29" target="4g3HLyUKp_iSWFGfKS_9-275" edge="1">
                    <mxGeometry width="50" height="50" relative="1" as="geometry">
                        <mxPoint x="710" y="150" as="sourcePoint"/>
                        <mxPoint x="760" y="100" as="targetPoint"/>
                        <Array as="points">
                            <mxPoint x="545" y="325"/>
                        </Array>
                    </mxGeometry>
                </mxCell>
                <mxCell id="4g3HLyUKp_iSWFGfKS_9-277" value="" style="endArrow=none;html=1;rounded=0;entryX=0.5;entryY=1;entryDx=0;entryDy=0;exitX=0;exitY=0.5;exitDx=0;exitDy=0;exitPerimeter=0;" parent="4g3HLyUKp_iSWFGfKS_9-202" source="4g3HLyUKp_iSWFGfKS_9-275" target="4g3HLyUKp_iSWFGfKS_9-61" edge="1">
                    <mxGeometry width="50" height="50" relative="1" as="geometry">
                        <mxPoint x="715" y="330" as="sourcePoint"/>
                        <mxPoint x="640" y="420" as="targetPoint"/>
                        <Array as="points">
                            <mxPoint x="715" y="325"/>
                        </Array>
                    </mxGeometry>
                </mxCell>
                <mxCell id="4g3HLyUKp_iSWFGfKS_9-278" value="" style="endArrow=none;html=1;rounded=0;entryX=0.5;entryY=1;entryDx=0;entryDy=0;exitX=0;exitY=0.5;exitDx=0;exitDy=0;exitPerimeter=0;" parent="4g3HLyUKp_iSWFGfKS_9-202" source="4g3HLyUKp_iSWFGfKS_9-275" target="4g3HLyUKp_iSWFGfKS_9-67" edge="1">
                    <mxGeometry width="50" height="50" relative="1" as="geometry">
                        <mxPoint x="1130" y="260" as="sourcePoint"/>
                        <mxPoint x="1180" y="210" as="targetPoint"/>
                        <Array as="points">
                            <mxPoint x="885" y="325"/>
                        </Array>
                    </mxGeometry>
                </mxCell>
                <mxCell id="4g3HLyUKp_iSWFGfKS_9-280" value="" style="outlineConnect=0;dashed=0;verticalLabelPosition=bottom;verticalAlign=top;align=center;html=1;shape=mxgraph.aws3.ec2;fillColor=#F58534;gradientColor=none;aspect=fixed;" parent="4g3HLyUKp_iSWFGfKS_9-202" vertex="1">
                    <mxGeometry x="500" y="391" width="24.68" height="30" as="geometry"/>
                </mxCell>
                <mxCell id="4g3HLyUKp_iSWFGfKS_9-281" value="" style="outlineConnect=0;dashed=0;verticalLabelPosition=bottom;verticalAlign=top;align=center;html=1;shape=mxgraph.aws3.ec2;fillColor=#F58534;gradientColor=none;aspect=fixed;" parent="4g3HLyUKp_iSWFGfKS_9-202" vertex="1">
                    <mxGeometry x="665.99" y="392" width="24.68" height="30" as="geometry"/>
                </mxCell>
                <mxCell id="4g3HLyUKp_iSWFGfKS_9-282" value="" style="outlineConnect=0;dashed=0;verticalLabelPosition=bottom;verticalAlign=top;align=center;html=1;shape=mxgraph.aws3.ec2;fillColor=#F58534;gradientColor=none;aspect=fixed;" parent="4g3HLyUKp_iSWFGfKS_9-202" vertex="1">
                    <mxGeometry x="835.99" y="392" width="24.68" height="30" as="geometry"/>
                </mxCell>
                <mxCell id="4g3HLyUKp_iSWFGfKS_9-283" value="" style="endArrow=classic;html=1;rounded=0;exitX=0;exitY=0.5;exitDx=0;exitDy=0;exitPerimeter=0;" parent="4g3HLyUKp_iSWFGfKS_9-202" source="4g3HLyUKp_iSWFGfKS_9-265" target="4g3HLyUKp_iSWFGfKS_9-280" edge="1">
                    <mxGeometry width="50" height="50" relative="1" as="geometry">
                        <mxPoint x="1150" y="390" as="sourcePoint"/>
                        <mxPoint x="1200" y="340" as="targetPoint"/>
                    </mxGeometry>
                </mxCell>
                <mxCell id="4g3HLyUKp_iSWFGfKS_9-284" value="" style="endArrow=classic;html=1;rounded=0;entryX=1;entryY=0.5;entryDx=0;entryDy=0;entryPerimeter=0;" parent="4g3HLyUKp_iSWFGfKS_9-202" source="4g3HLyUKp_iSWFGfKS_9-267" target="4g3HLyUKp_iSWFGfKS_9-281" edge="1">
                    <mxGeometry width="50" height="50" relative="1" as="geometry">
                        <mxPoint x="690" y="460" as="sourcePoint"/>
                        <mxPoint x="740" y="410" as="targetPoint"/>
                    </mxGeometry>
                </mxCell>
                <mxCell id="4g3HLyUKp_iSWFGfKS_9-285" value="" style="endArrow=classic;html=1;rounded=0;entryX=1;entryY=0.5;entryDx=0;entryDy=0;entryPerimeter=0;" parent="4g3HLyUKp_iSWFGfKS_9-202" target="4g3HLyUKp_iSWFGfKS_9-282" edge="1">
                    <mxGeometry width="50" height="50" relative="1" as="geometry">
                        <mxPoint x="900" y="407" as="sourcePoint"/>
                        <mxPoint x="1140" y="350" as="targetPoint"/>
                    </mxGeometry>
                </mxCell>
                <mxCell id="4g3HLyUKp_iSWFGfKS_9-286" value="" style="endArrow=classic;html=1;rounded=0;entryX=0.5;entryY=0;entryDx=0;entryDy=0;entryPerimeter=0;exitX=0.5;exitY=1;exitDx=0;exitDy=0;exitPerimeter=0;" parent="4g3HLyUKp_iSWFGfKS_9-202" source="4g3HLyUKp_iSWFGfKS_9-275" target="4g3HLyUKp_iSWFGfKS_9-265" edge="1">
                    <mxGeometry width="50" height="50" relative="1" as="geometry">
                        <mxPoint x="1090" y="360" as="sourcePoint"/>
                        <mxPoint x="1140" y="310" as="targetPoint"/>
                        <Array as="points">
                            <mxPoint x="1014" y="350"/>
                            <mxPoint x="576" y="350"/>
                        </Array>
                    </mxGeometry>
                </mxCell>
                <mxCell id="4g3HLyUKp_iSWFGfKS_9-287" value="" style="endArrow=classic;html=1;rounded=0;entryX=0.5;entryY=0;entryDx=0;entryDy=0;entryPerimeter=0;exitX=0.5;exitY=1;exitDx=0;exitDy=0;exitPerimeter=0;" parent="4g3HLyUKp_iSWFGfKS_9-202" source="4g3HLyUKp_iSWFGfKS_9-275" target="4g3HLyUKp_iSWFGfKS_9-267" edge="1">
                    <mxGeometry width="50" height="50" relative="1" as="geometry">
                        <mxPoint x="1140" y="390" as="sourcePoint"/>
                        <mxPoint x="1190" y="340" as="targetPoint"/>
                        <Array as="points">
                            <mxPoint x="1014" y="350"/>
                            <mxPoint x="745" y="350"/>
                        </Array>
                    </mxGeometry>
                </mxCell>
                <mxCell id="4g3HLyUKp_iSWFGfKS_9-288" value="" style="endArrow=classic;html=1;rounded=0;exitX=0.5;exitY=1;exitDx=0;exitDy=0;exitPerimeter=0;entryX=0.5;entryY=0;entryDx=0;entryDy=0;entryPerimeter=0;" parent="4g3HLyUKp_iSWFGfKS_9-202" source="4g3HLyUKp_iSWFGfKS_9-275" target="4g3HLyUKp_iSWFGfKS_9-268" edge="1">
                    <mxGeometry width="50" height="50" relative="1" as="geometry">
                        <mxPoint x="1090" y="390" as="sourcePoint"/>
                        <mxPoint x="1140" y="340" as="targetPoint"/>
                        <Array as="points">
                            <mxPoint x="1014" y="350"/>
                            <mxPoint x="915" y="350"/>
                        </Array>
                    </mxGeometry>
                </mxCell>
                <mxCell id="4g3HLyUKp_iSWFGfKS_9-289" value="&lt;div&gt;Private&lt;/div&gt;&lt;div&gt;DNS&lt;br&gt;&lt;/div&gt;" style="text;html=1;strokeColor=none;fillColor=none;align=center;verticalAlign=middle;whiteSpace=wrap;rounded=0;" parent="4g3HLyUKp_iSWFGfKS_9-202" vertex="1">
                    <mxGeometry x="986" y="728" width="60" height="30" as="geometry"/>
                </mxCell>
                <mxCell id="4g3HLyUKp_iSWFGfKS_9-290" value="&lt;div&gt;Private&lt;/div&gt;&lt;div&gt;DNS&lt;br&gt;&lt;/div&gt;" style="text;html=1;strokeColor=none;fillColor=none;align=center;verticalAlign=middle;whiteSpace=wrap;rounded=0;" parent="4g3HLyUKp_iSWFGfKS_9-202" vertex="1">
                    <mxGeometry x="986" y="1390" width="60" height="30" as="geometry"/>
                </mxCell>
                <mxCell id="4g3HLyUKp_iSWFGfKS_9-291" value="" style="aspect=fixed;perimeter=ellipsePerimeter;html=1;align=center;shadow=0;dashed=0;fontColor=#4277BB;labelBackgroundColor=#ffffff;fontSize=12;spacingTop=3;image;image=img/lib/ibm/data/enterprise_user_directory.svg;fillColor=#CCCCCC;" parent="4g3HLyUKp_iSWFGfKS_9-202" vertex="1">
                    <mxGeometry x="1408" y="169" width="60" height="60" as="geometry"/>
                </mxCell>
                <mxCell id="4g3HLyUKp_iSWFGfKS_9-292" value="" style="aspect=fixed;perimeter=ellipsePerimeter;html=1;align=center;shadow=0;dashed=0;fontColor=#4277BB;labelBackgroundColor=#ffffff;fontSize=12;spacingTop=3;image;image=img/lib/ibm/applications/enterprise_applications.svg;fillColor=#CCCCCC;" parent="4g3HLyUKp_iSWFGfKS_9-202" vertex="1">
                    <mxGeometry x="1408" y="370" width="60" height="60" as="geometry"/>
                </mxCell>
                <mxCell id="4g3HLyUKp_iSWFGfKS_9-293" value="" style="aspect=fixed;perimeter=ellipsePerimeter;html=1;align=center;shadow=0;dashed=0;fontColor=#4277BB;labelBackgroundColor=#ffffff;fontSize=12;spacingTop=3;image;image=img/lib/ibm/users/user.svg;fillColor=#CCCCCC;" parent="4g3HLyUKp_iSWFGfKS_9-202" vertex="1">
                    <mxGeometry x="1408" y="270" width="60" height="60" as="geometry"/>
                </mxCell>
                <mxCell id="4g3HLyUKp_iSWFGfKS_9-294" value="&lt;div&gt;Enterprise&lt;/div&gt;&lt;div&gt;Directory&lt;br&gt;&lt;/div&gt;" style="text;html=1;strokeColor=none;fillColor=none;align=center;verticalAlign=middle;whiteSpace=wrap;rounded=0;" parent="4g3HLyUKp_iSWFGfKS_9-202" vertex="1">
                    <mxGeometry x="1408.4" y="229" width="60" height="30" as="geometry"/>
                </mxCell>
                <mxCell id="4g3HLyUKp_iSWFGfKS_9-295" value="&lt;div&gt;Corporate&lt;/div&gt;&lt;div&gt;User&lt;br&gt;&lt;/div&gt;" style="text;html=1;strokeColor=none;fillColor=none;align=center;verticalAlign=middle;whiteSpace=wrap;rounded=0;" parent="4g3HLyUKp_iSWFGfKS_9-202" vertex="1">
                    <mxGeometry x="1408" y="334" width="60" height="30" as="geometry"/>
                </mxCell>
                <mxCell id="4g3HLyUKp_iSWFGfKS_9-296" value="&lt;div&gt;Enterprise&lt;/div&gt;&lt;div&gt;Applications&lt;br&gt;&lt;/div&gt;" style="text;html=1;strokeColor=none;fillColor=none;align=center;verticalAlign=middle;whiteSpace=wrap;rounded=0;" parent="4g3HLyUKp_iSWFGfKS_9-202" vertex="1">
                    <mxGeometry x="1410" y="432" width="60" height="30" as="geometry"/>
                </mxCell>
                <mxCell id="4g3HLyUKp_iSWFGfKS_9-298" value="" style="aspect=fixed;perimeter=ellipsePerimeter;html=1;align=center;shadow=0;dashed=0;fontColor=#4277BB;labelBackgroundColor=#ffffff;fontSize=12;spacingTop=3;image;image=img/lib/ibm/vpc/DirectLink.svg;fillColor=#CCCCCC;" parent="4g3HLyUKp_iSWFGfKS_9-202" vertex="1">
                    <mxGeometry x="1148" y="236" width="60" height="60" as="geometry"/>
                </mxCell>
                <mxCell id="4g3HLyUKp_iSWFGfKS_9-299" value="" style="outlineConnect=0;dashed=0;verticalLabelPosition=bottom;verticalAlign=top;align=center;html=1;shape=mxgraph.aws3.internet_gateway;fillColor=#F58536;gradientColor=none;aspect=fixed;" parent="4g3HLyUKp_iSWFGfKS_9-202" vertex="1">
                    <mxGeometry x="1028.75" y="240" width="49.84" height="52" as="geometry"/>
                </mxCell>
                <mxCell id="4g3HLyUKp_iSWFGfKS_9-300" value="" style="endArrow=classic;startArrow=classic;html=1;rounded=0;exitX=1;exitY=0.5;exitDx=0;exitDy=0;exitPerimeter=0;entryX=0;entryY=0.5;entryDx=0;entryDy=0;" parent="4g3HLyUKp_iSWFGfKS_9-202" source="4g3HLyUKp_iSWFGfKS_9-299" target="4g3HLyUKp_iSWFGfKS_9-298" edge="1">
                    <mxGeometry width="50" height="50" relative="1" as="geometry">
                        <mxPoint x="1140" y="110" as="sourcePoint"/>
                        <mxPoint x="1190" y="60" as="targetPoint"/>
                    </mxGeometry>
                </mxCell>
                <mxCell id="4g3HLyUKp_iSWFGfKS_9-301" value="" style="endArrow=classic;startArrow=classic;html=1;rounded=0;exitX=1;exitY=0.5;exitDx=0;exitDy=0;" parent="4g3HLyUKp_iSWFGfKS_9-202" source="4g3HLyUKp_iSWFGfKS_9-298" edge="1">
                    <mxGeometry width="50" height="50" relative="1" as="geometry">
                        <mxPoint x="1088.5900000000001" y="276" as="sourcePoint"/>
                        <mxPoint x="1360" y="266" as="targetPoint"/>
                    </mxGeometry>
                </mxCell>
                <mxCell id="4g3HLyUKp_iSWFGfKS_9-304" value="" style="endArrow=none;html=1;rounded=0;entryX=0.5;entryY=0;entryDx=0;entryDy=0;entryPerimeter=0;" parent="4g3HLyUKp_iSWFGfKS_9-202" target="4g3HLyUKp_iSWFGfKS_9-270" edge="1">
                    <mxGeometry width="50" height="50" relative="1" as="geometry">
                        <mxPoint x="440" y="210" as="sourcePoint"/>
                        <mxPoint x="650" y="40" as="targetPoint"/>
                        <Array as="points">
                            <mxPoint x="675" y="210"/>
                        </Array>
                    </mxGeometry>
                </mxCell>
                <mxCell id="4g3HLyUKp_iSWFGfKS_9-305" value="" style="endArrow=none;html=1;rounded=0;entryX=0.5;entryY=0;entryDx=0;entryDy=0;entryPerimeter=0;" parent="4g3HLyUKp_iSWFGfKS_9-202" target="4g3HLyUKp_iSWFGfKS_9-271" edge="1">
                    <mxGeometry width="50" height="50" relative="1" as="geometry">
                        <mxPoint x="440" y="210" as="sourcePoint"/>
                        <mxPoint x="680" y="60" as="targetPoint"/>
                        <Array as="points">
                            <mxPoint x="845" y="210"/>
                        </Array>
                    </mxGeometry>
                </mxCell>
                <mxCell id="4g3HLyUKp_iSWFGfKS_9-308" value="&lt;div&gt;Direct&lt;/div&gt;&lt;div&gt;Connection&lt;br&gt;&lt;/div&gt;" style="text;html=1;strokeColor=none;fillColor=none;align=center;verticalAlign=middle;whiteSpace=wrap;rounded=0;" parent="4g3HLyUKp_iSWFGfKS_9-202" vertex="1">
                    <mxGeometry x="1148" y="296" width="60" height="30" as="geometry"/>
                </mxCell>
                <mxCell id="4g3HLyUKp_iSWFGfKS_9-309" value="&lt;div&gt;Internet&lt;/div&gt;&lt;div&gt;Gateway&lt;br&gt;&lt;/div&gt;" style="text;html=1;strokeColor=none;fillColor=none;align=center;verticalAlign=middle;whiteSpace=wrap;rounded=0;" parent="4g3HLyUKp_iSWFGfKS_9-202" vertex="1">
                    <mxGeometry x="1049.83" y="210" width="60" height="30" as="geometry"/>
                </mxCell>
                <mxCell id="4g3HLyUKp_iSWFGfKS_9-313" value="&lt;div&gt;Endpoint&lt;/div&gt;&lt;div&gt;Gateway&lt;/div&gt;" style="text;html=1;strokeColor=none;fillColor=none;align=center;verticalAlign=middle;whiteSpace=wrap;rounded=0;" parent="4g3HLyUKp_iSWFGfKS_9-202" vertex="1">
                    <mxGeometry x="980" y="834" width="60" height="30" as="geometry"/>
                </mxCell>
                <mxCell id="4g3HLyUKp_iSWFGfKS_9-319" value="" style="sketch=0;aspect=fixed;html=1;points=[];align=center;image;fontSize=12;image=img/lib/mscae/OpenShift.svg;fillColor=#CCCCCC;" parent="4g3HLyUKp_iSWFGfKS_9-202" vertex="1">
                    <mxGeometry x="554.49" y="734" width="39.13" height="36" as="geometry"/>
                </mxCell>
                <mxCell id="4g3HLyUKp_iSWFGfKS_9-320" value="" style="sketch=0;aspect=fixed;html=1;points=[];align=center;image;fontSize=12;image=img/lib/mscae/OpenShift.svg;fillColor=#CCCCCC;" parent="4g3HLyUKp_iSWFGfKS_9-202" vertex="1">
                    <mxGeometry x="727" y="734" width="39.13" height="36" as="geometry"/>
                </mxCell>
                <mxCell id="4g3HLyUKp_iSWFGfKS_9-322" value="ROSA" style="rounded=1;whiteSpace=wrap;html=1;fillColor=none;strokeColor=#FF0000;strokeWidth=2;align=left;verticalAlign=middle;" parent="4g3HLyUKp_iSWFGfKS_9-202" vertex="1">
                    <mxGeometry x="497.62" y="727" width="440" height="50" as="geometry"/>
                </mxCell>
                <mxCell id="4g3HLyUKp_iSWFGfKS_9-321" value="" style="sketch=0;aspect=fixed;html=1;points=[];align=center;image;fontSize=12;image=img/lib/mscae/OpenShift.svg;fillColor=#CCCCCC;" parent="4g3HLyUKp_iSWFGfKS_9-202" vertex="1">
                    <mxGeometry x="895.77" y="734" width="39.13" height="36" as="geometry"/>
                </mxCell>
                <mxCell id="4g3HLyUKp_iSWFGfKS_9-323" value="ROSA" style="rounded=1;whiteSpace=wrap;html=1;fillColor=none;strokeColor=#FF0000;strokeWidth=2;align=left;verticalAlign=middle;" parent="4g3HLyUKp_iSWFGfKS_9-202" vertex="1">
                    <mxGeometry x="490" y="1200" width="440" height="50" as="geometry"/>
                </mxCell>
                <mxCell id="4g3HLyUKp_iSWFGfKS_9-324" value="" style="sketch=0;aspect=fixed;html=1;points=[];align=center;image;fontSize=12;image=img/lib/mscae/OpenShift.svg;fillColor=#CCCCCC;" parent="4g3HLyUKp_iSWFGfKS_9-202" vertex="1">
                    <mxGeometry x="545.77" y="1204" width="39.13" height="36" as="geometry"/>
                </mxCell>
                <mxCell id="4g3HLyUKp_iSWFGfKS_9-325" value="" style="sketch=0;aspect=fixed;html=1;points=[];align=center;image;fontSize=12;image=img/lib/mscae/OpenShift.svg;fillColor=#CCCCCC;" parent="4g3HLyUKp_iSWFGfKS_9-202" vertex="1">
                    <mxGeometry x="719" y="1205" width="39.13" height="36" as="geometry"/>
                </mxCell>
                <mxCell id="4g3HLyUKp_iSWFGfKS_9-326" value="" style="sketch=0;aspect=fixed;html=1;points=[];align=center;image;fontSize=12;image=img/lib/mscae/OpenShift.svg;fillColor=#CCCCCC;" parent="4g3HLyUKp_iSWFGfKS_9-202" vertex="1">
                    <mxGeometry x="890" y="1205" width="39.13" height="36" as="geometry"/>
                </mxCell>
                <mxCell id="4g3HLyUKp_iSWFGfKS_9-327" value="" style="endArrow=classic;html=1;rounded=0;entryX=0;entryY=0.5;entryDx=0;entryDy=0;entryPerimeter=0;exitX=0.5;exitY=1;exitDx=0;exitDy=0;" parent="4g3HLyUKp_iSWFGfKS_9-202" source="4g3HLyUKp_iSWFGfKS_9-212" target="4g3HLyUKp_iSWFGfKS_9-219" edge="1">
                    <mxGeometry width="50" height="50" relative="1" as="geometry">
                        <mxPoint x="250" y="1100" as="sourcePoint"/>
                        <mxPoint x="300" y="1050" as="targetPoint"/>
                        <Array as="points">
                            <mxPoint x="200" y="926"/>
                        </Array>
                    </mxGeometry>
                </mxCell>
                <mxCell id="4g3HLyUKp_iSWFGfKS_9-328" value="" style="endArrow=classic;html=1;rounded=0;entryX=0;entryY=0.5;entryDx=0;entryDy=0;entryPerimeter=0;exitX=0.5;exitY=1;exitDx=0;exitDy=0;" parent="4g3HLyUKp_iSWFGfKS_9-202" source="4g3HLyUKp_iSWFGfKS_9-212" target="4g3HLyUKp_iSWFGfKS_9-220" edge="1">
                    <mxGeometry width="50" height="50" relative="1" as="geometry">
                        <mxPoint x="250" y="1100" as="sourcePoint"/>
                        <mxPoint x="300" y="1050" as="targetPoint"/>
                        <Array as="points">
                            <mxPoint x="200" y="1396"/>
                        </Array>
                    </mxGeometry>
                </mxCell>
                <mxCell id="2" value="" style="outlineConnect=0;dashed=0;verticalLabelPosition=bottom;verticalAlign=top;align=center;html=1;shape=mxgraph.aws3.vpc_peering;fillColor=#F58534;gradientColor=none;aspect=fixed;" parent="4g3HLyUKp_iSWFGfKS_9-202" vertex="1">
                    <mxGeometry x="1210" y="610" width="49.83" height="52" as="geometry"/>
                </mxCell>
                <mxCell id="3" value="&lt;div&gt;VPC&lt;/div&gt;&lt;div&gt;Peer&lt;/div&gt;&lt;div&gt;Connection&lt;br&gt;&lt;/div&gt;" style="text;html=1;strokeColor=none;fillColor=none;align=center;verticalAlign=middle;whiteSpace=wrap;rounded=0;" parent="4g3HLyUKp_iSWFGfKS_9-202" vertex="1">
                    <mxGeometry x="1160" y="640" width="60" height="30" as="geometry"/>
                </mxCell>
                <mxCell id="13" value="" style="outlineConnect=0;dashed=0;verticalLabelPosition=bottom;verticalAlign=top;align=center;html=1;shape=mxgraph.aws3.elastic_ip;fillColor=#F58534;gradientColor=none;" parent="4g3HLyUKp_iSWFGfKS_9-202" vertex="1">
                    <mxGeometry x="309.84000000000003" y="426" width="76.5" height="21" as="geometry"/>
                </mxCell>
                <mxCell id="14" value="Elastic&lt;br&gt;IP" style="text;html=1;strokeColor=none;fillColor=none;align=center;verticalAlign=middle;whiteSpace=wrap;rounded=0;" parent="4g3HLyUKp_iSWFGfKS_9-202" vertex="1">
                    <mxGeometry x="279.84000000000003" y="447.5" width="60" height="30" as="geometry"/>
                </mxCell>
                <mxCell id="15" value="" style="outlineConnect=0;dashed=0;verticalLabelPosition=bottom;verticalAlign=top;align=center;html=1;shape=mxgraph.aws3.vpc_nat_gateway;fillColor=#F58536;gradientColor=none;" parent="4g3HLyUKp_iSWFGfKS_9-202" vertex="1">
                    <mxGeometry x="399.84000000000003" y="416.5" width="40" height="40" as="geometry"/>
                </mxCell>
                <mxCell id="16" value="" style="outlineConnect=0;dashed=0;verticalLabelPosition=bottom;verticalAlign=top;align=center;html=1;shape=mxgraph.aws3.endpoints;fillColor=#F58536;gradientColor=none;aspect=fixed;flipV=0;flipH=1;" parent="4g3HLyUKp_iSWFGfKS_9-202" vertex="1">
                    <mxGeometry x="1025.91" y="777" width="49.83" height="52" as="geometry"/>
                </mxCell>
                <mxCell id="17" value="" style="endArrow=classic;startArrow=classic;html=1;rounded=0;exitX=0;exitY=0.5;exitDx=0;exitDy=0;exitPerimeter=0;" parent="4g3HLyUKp_iSWFGfKS_9-202" source="16" edge="1">
                    <mxGeometry width="50" height="50" relative="1" as="geometry">
                        <mxPoint x="1085.91" y="797" as="sourcePoint"/>
                        <mxPoint x="1130" y="802" as="targetPoint"/>
                    </mxGeometry>
                </mxCell>
                <mxCell id="18" value="" style="outlineConnect=0;dashed=0;verticalLabelPosition=bottom;verticalAlign=top;align=center;html=1;shape=mxgraph.aws3.endpoints;fillColor=#F58536;gradientColor=none;aspect=fixed;flipV=0;flipH=1;" parent="4g3HLyUKp_iSWFGfKS_9-202" vertex="1">
                    <mxGeometry x="1020" y="1254" width="49.83" height="52" as="geometry"/>
                </mxCell>
                <mxCell id="19" value="" style="endArrow=classic;startArrow=classic;html=1;rounded=0;" parent="4g3HLyUKp_iSWFGfKS_9-202" edge="1">
                    <mxGeometry width="50" height="50" relative="1" as="geometry">
                        <mxPoint x="1070" y="1284" as="sourcePoint"/>
                        <mxPoint x="1130" y="1284" as="targetPoint"/>
                    </mxGeometry>
                </mxCell>
                <mxCell id="20" value="" style="outlineConnect=0;dashed=0;verticalLabelPosition=bottom;verticalAlign=top;align=center;html=1;shape=mxgraph.aws3.endpoints;fillColor=#F58536;gradientColor=none;aspect=fixed;" parent="4g3HLyUKp_iSWFGfKS_9-202" vertex="1">
                    <mxGeometry x="557.49" y="849" width="30.67" height="32" as="geometry"/>
                </mxCell>
                <mxCell id="21" value="" style="outlineConnect=0;dashed=0;verticalLabelPosition=bottom;verticalAlign=top;align=center;html=1;shape=mxgraph.aws3.endpoints;fillColor=#F58536;gradientColor=none;aspect=fixed;" parent="4g3HLyUKp_iSWFGfKS_9-202" vertex="1">
                    <mxGeometry x="731.23" y="849" width="30.67" height="32" as="geometry"/>
                </mxCell>
                <mxCell id="22" value="" style="outlineConnect=0;dashed=0;verticalLabelPosition=bottom;verticalAlign=top;align=center;html=1;shape=mxgraph.aws3.endpoints;fillColor=#F58536;gradientColor=none;aspect=fixed;" parent="4g3HLyUKp_iSWFGfKS_9-202" vertex="1">
                    <mxGeometry x="900" y="850" width="30.67" height="32" as="geometry"/>
                </mxCell>
                <mxCell id="23" value="" style="outlineConnect=0;dashed=0;verticalLabelPosition=bottom;verticalAlign=top;align=center;html=1;shape=mxgraph.aws3.endpoints;fillColor=#F58536;gradientColor=none;aspect=fixed;" parent="4g3HLyUKp_iSWFGfKS_9-202" vertex="1">
                    <mxGeometry x="550" y="1320" width="30.67" height="32" as="geometry"/>
                </mxCell>
                <mxCell id="24" value="" style="outlineConnect=0;dashed=0;verticalLabelPosition=bottom;verticalAlign=top;align=center;html=1;shape=mxgraph.aws3.endpoints;fillColor=#F58536;gradientColor=none;aspect=fixed;" parent="4g3HLyUKp_iSWFGfKS_9-202" vertex="1">
                    <mxGeometry x="723.23" y="1320" width="30.67" height="32" as="geometry"/>
                </mxCell>
                <mxCell id="25" value="" style="outlineConnect=0;dashed=0;verticalLabelPosition=bottom;verticalAlign=top;align=center;html=1;shape=mxgraph.aws3.endpoints;fillColor=#F58536;gradientColor=none;aspect=fixed;" parent="4g3HLyUKp_iSWFGfKS_9-202" vertex="1">
                    <mxGeometry x="890" y="1320" width="30.67" height="32" as="geometry"/>
                </mxCell>
                <mxCell id="26" value="VPC&lt;br&gt;Endpoint" style="text;html=1;strokeColor=none;fillColor=none;align=center;verticalAlign=middle;whiteSpace=wrap;rounded=0;fontSize=8;" parent="4g3HLyUKp_iSWFGfKS_9-202" vertex="1">
                    <mxGeometry x="510" y="852" width="60" height="30" as="geometry"/>
                </mxCell>
                <mxCell id="27" value="VPC&lt;br&gt;Endpoint" style="text;html=1;strokeColor=none;fillColor=none;align=center;verticalAlign=middle;whiteSpace=wrap;rounded=0;fontSize=8;" parent="4g3HLyUKp_iSWFGfKS_9-202" vertex="1">
                    <mxGeometry x="685.62" y="852" width="60" height="30" as="geometry"/>
                </mxCell>
                <mxCell id="28" value="VPC&lt;br&gt;Endpoint" style="text;html=1;strokeColor=none;fillColor=none;align=center;verticalAlign=middle;whiteSpace=wrap;rounded=0;fontSize=8;" parent="4g3HLyUKp_iSWFGfKS_9-202" vertex="1">
                    <mxGeometry x="850" y="852" width="60" height="30" as="geometry"/>
                </mxCell>
                <mxCell id="29" value="VPC&lt;br&gt;Endpoint" style="text;html=1;strokeColor=none;fillColor=none;align=center;verticalAlign=middle;whiteSpace=wrap;rounded=0;fontSize=8;" parent="4g3HLyUKp_iSWFGfKS_9-202" vertex="1">
                    <mxGeometry x="504" y="1327" width="60" height="30" as="geometry"/>
                </mxCell>
                <mxCell id="30" value="VPC&lt;br&gt;Endpoint" style="text;html=1;strokeColor=none;fillColor=none;align=center;verticalAlign=middle;whiteSpace=wrap;rounded=0;fontSize=8;" parent="4g3HLyUKp_iSWFGfKS_9-202" vertex="1">
                    <mxGeometry x="680" y="1327" width="60" height="30" as="geometry"/>
                </mxCell>
                <mxCell id="31" value="VPC&lt;br&gt;Endpoint" style="text;html=1;strokeColor=none;fillColor=none;align=center;verticalAlign=middle;whiteSpace=wrap;rounded=0;fontSize=8;" parent="4g3HLyUKp_iSWFGfKS_9-202" vertex="1">
                    <mxGeometry x="846" y="1330" width="60" height="30" as="geometry"/>
                </mxCell>
                <mxCell id="33" value="" style="endArrow=classic;html=1;fontSize=8;entryX=1;entryY=0.5;entryDx=0;entryDy=0;entryPerimeter=0;exitX=0.5;exitY=0;exitDx=0;exitDy=0;exitPerimeter=0;rounded=0;" parent="4g3HLyUKp_iSWFGfKS_9-202" source="22" target="16" edge="1">
                    <mxGeometry width="50" height="50" relative="1" as="geometry">
                        <mxPoint x="250" y="1130" as="sourcePoint"/>
                        <mxPoint x="300" y="1080" as="targetPoint"/>
                        <Array as="points">
                            <mxPoint x="915" y="803"/>
                        </Array>
                    </mxGeometry>
                </mxCell>
                <mxCell id="35" value="&lt;div&gt;Endpoint&lt;/div&gt;&lt;div&gt;Gateway&lt;/div&gt;" style="text;html=1;strokeColor=none;fillColor=none;align=center;verticalAlign=middle;whiteSpace=wrap;rounded=0;" parent="4g3HLyUKp_iSWFGfKS_9-202" vertex="1">
                    <mxGeometry x="980" y="1230" width="60" height="30" as="geometry"/>
                </mxCell>
                <mxCell id="37" value="" style="endArrow=none;html=1;rounded=0;fontSize=8;entryX=1;entryY=0.5;entryDx=0;entryDy=0;entryPerimeter=0;exitX=1;exitY=0;exitDx=0;exitDy=0;" parent="4g3HLyUKp_iSWFGfKS_9-202" source="27" target="16" edge="1">
                    <mxGeometry width="50" height="50" relative="1" as="geometry">
                        <mxPoint x="370" y="880" as="sourcePoint"/>
                        <mxPoint x="420" y="830" as="targetPoint"/>
                        <Array as="points">
                            <mxPoint x="746" y="803"/>
                        </Array>
                    </mxGeometry>
                </mxCell>
                <mxCell id="38" value="" style="endArrow=none;html=1;rounded=0;fontSize=8;entryX=1;entryY=0.5;entryDx=0;entryDy=0;entryPerimeter=0;exitX=1;exitY=0;exitDx=0;exitDy=0;" parent="4g3HLyUKp_iSWFGfKS_9-202" source="26" target="16" edge="1">
                    <mxGeometry width="50" height="50" relative="1" as="geometry">
                        <mxPoint x="260" y="1080" as="sourcePoint"/>
                        <mxPoint x="310" y="1030" as="targetPoint"/>
                        <Array as="points">
                            <mxPoint x="570" y="803"/>
                        </Array>
                    </mxGeometry>
                </mxCell>
                <mxCell id="48" value="" style="outlineConnect=0;dashed=0;verticalLabelPosition=bottom;verticalAlign=top;align=center;html=1;shape=mxgraph.aws3.classic_load_balancer;fillColor=#F58536;gradientColor=none;fontSize=8;aspect=fixed;" parent="4g3HLyUKp_iSWFGfKS_9-202" vertex="1">
                    <mxGeometry x="558.72" y="961" width="30.67" height="32" as="geometry"/>
                </mxCell>
                <mxCell id="49" value="" style="outlineConnect=0;dashed=0;verticalLabelPosition=bottom;verticalAlign=top;align=center;html=1;shape=mxgraph.aws3.classic_load_balancer;fillColor=#F58536;gradientColor=none;fontSize=8;aspect=fixed;" parent="4g3HLyUKp_iSWFGfKS_9-202" vertex="1">
                    <mxGeometry x="730" y="961" width="30.67" height="32" as="geometry"/>
                </mxCell>
                <mxCell id="50" value="" style="outlineConnect=0;dashed=0;verticalLabelPosition=bottom;verticalAlign=top;align=center;html=1;shape=mxgraph.aws3.classic_load_balancer;fillColor=#F58536;gradientColor=none;fontSize=8;aspect=fixed;" parent="4g3HLyUKp_iSWFGfKS_9-202" vertex="1">
                    <mxGeometry x="900" y="961" width="30.67" height="32" as="geometry"/>
                </mxCell>
                <mxCell id="51" value="" style="outlineConnect=0;dashed=0;verticalLabelPosition=bottom;verticalAlign=top;align=center;html=1;shape=mxgraph.aws3.classic_load_balancer;fillColor=#F58536;gradientColor=none;fontSize=8;aspect=fixed;" parent="4g3HLyUKp_iSWFGfKS_9-202" vertex="1">
                    <mxGeometry x="554.23" y="1430" width="30.67" height="32" as="geometry"/>
                </mxCell>
                <mxCell id="52" value="" style="outlineConnect=0;dashed=0;verticalLabelPosition=bottom;verticalAlign=top;align=center;html=1;shape=mxgraph.aws3.classic_load_balancer;fillColor=#F58536;gradientColor=none;fontSize=8;aspect=fixed;" parent="4g3HLyUKp_iSWFGfKS_9-202" vertex="1">
                    <mxGeometry x="727" y="1430" width="30.67" height="32" as="geometry"/>
                </mxCell>
                <mxCell id="53" value="" style="outlineConnect=0;dashed=0;verticalLabelPosition=bottom;verticalAlign=top;align=center;html=1;shape=mxgraph.aws3.classic_load_balancer;fillColor=#F58536;gradientColor=none;fontSize=8;aspect=fixed;" parent="4g3HLyUKp_iSWFGfKS_9-202" vertex="1">
                    <mxGeometry x="894.23" y="1430" width="30.67" height="32" as="geometry"/>
                </mxCell>
                <mxCell id="54" value="" style="endArrow=classic;html=1;rounded=0;fontSize=8;entryX=0.5;entryY=0;entryDx=0;entryDy=0;entryPerimeter=0;exitX=1;exitY=0.5;exitDx=0;exitDy=0;exitPerimeter=0;" parent="4g3HLyUKp_iSWFGfKS_9-202" source="4g3HLyUKp_iSWFGfKS_9-219" target="48" edge="1">
                    <mxGeometry width="50" height="50" relative="1" as="geometry">
                        <mxPoint x="270" y="1120" as="sourcePoint"/>
                        <mxPoint x="320" y="1070" as="targetPoint"/>
                        <Array as="points">
                            <mxPoint x="574" y="926"/>
                        </Array>
                    </mxGeometry>
                </mxCell>
                <mxCell id="55" value="" style="endArrow=classic;html=1;rounded=0;fontSize=8;entryX=0.5;entryY=0;entryDx=0;entryDy=0;entryPerimeter=0;exitX=1;exitY=0.5;exitDx=0;exitDy=0;exitPerimeter=0;" parent="4g3HLyUKp_iSWFGfKS_9-202" source="4g3HLyUKp_iSWFGfKS_9-219" target="49" edge="1">
                    <mxGeometry width="50" height="50" relative="1" as="geometry">
                        <mxPoint x="270" y="1070" as="sourcePoint"/>
                        <mxPoint x="320" y="1020" as="targetPoint"/>
                        <Array as="points">
                            <mxPoint x="745" y="926"/>
                        </Array>
                    </mxGeometry>
                </mxCell>
                <mxCell id="56" value="" style="endArrow=classic;html=1;rounded=0;fontSize=8;entryX=0.5;entryY=0;entryDx=0;entryDy=0;entryPerimeter=0;exitX=1;exitY=0.5;exitDx=0;exitDy=0;exitPerimeter=0;" parent="4g3HLyUKp_iSWFGfKS_9-202" source="4g3HLyUKp_iSWFGfKS_9-219" target="50" edge="1">
                    <mxGeometry width="50" height="50" relative="1" as="geometry">
                        <mxPoint x="230" y="1090" as="sourcePoint"/>
                        <mxPoint x="280" y="1040" as="targetPoint"/>
                        <Array as="points">
                            <mxPoint x="915" y="926"/>
                        </Array>
                    </mxGeometry>
                </mxCell>
                <mxCell id="57" value="" style="endArrow=classic;html=1;rounded=0;fontSize=8;entryX=0.5;entryY=0;entryDx=0;entryDy=0;entryPerimeter=0;exitX=1;exitY=0.5;exitDx=0;exitDy=0;exitPerimeter=0;" parent="4g3HLyUKp_iSWFGfKS_9-202" source="4g3HLyUKp_iSWFGfKS_9-220" target="51" edge="1">
                    <mxGeometry width="50" height="50" relative="1" as="geometry">
                        <mxPoint x="460" y="1590" as="sourcePoint"/>
                        <mxPoint x="510" y="1540" as="targetPoint"/>
                        <Array as="points">
                            <mxPoint x="570" y="1394"/>
                        </Array>
                    </mxGeometry>
                </mxCell>
                <mxCell id="58" value="" style="endArrow=classic;html=1;rounded=0;fontSize=8;entryX=0.5;entryY=0;entryDx=0;entryDy=0;entryPerimeter=0;exitX=1;exitY=0.5;exitDx=0;exitDy=0;exitPerimeter=0;" parent="4g3HLyUKp_iSWFGfKS_9-202" source="4g3HLyUKp_iSWFGfKS_9-220" target="52" edge="1">
                    <mxGeometry width="50" height="50" relative="1" as="geometry">
                        <mxPoint x="310" y="1600" as="sourcePoint"/>
                        <mxPoint x="360" y="1550" as="targetPoint"/>
                        <Array as="points">
                            <mxPoint x="742" y="1394"/>
                        </Array>
                    </mxGeometry>
                </mxCell>
                <mxCell id="59" value="" style="endArrow=classic;html=1;rounded=0;fontSize=8;entryX=0.5;entryY=0;entryDx=0;entryDy=0;entryPerimeter=0;" parent="4g3HLyUKp_iSWFGfKS_9-202" source="4g3HLyUKp_iSWFGfKS_9-220" target="53" edge="1">
                    <mxGeometry width="50" height="50" relative="1" as="geometry">
                        <mxPoint x="240" y="1520" as="sourcePoint"/>
                        <mxPoint x="290" y="1470" as="targetPoint"/>
                        <Array as="points">
                            <mxPoint x="910" y="1394"/>
                        </Array>
                    </mxGeometry>
                </mxCell>
                <mxCell id="60" value="" style="endArrow=classic;html=1;rounded=0;fontSize=8;entryX=1;entryY=0.5;entryDx=0;entryDy=0;entryPerimeter=0;exitX=0.5;exitY=0;exitDx=0;exitDy=0;exitPerimeter=0;" parent="4g3HLyUKp_iSWFGfKS_9-202" source="25" target="18" edge="1">
                    <mxGeometry width="50" height="50" relative="1" as="geometry">
                        <mxPoint x="610" y="1590" as="sourcePoint"/>
                        <mxPoint x="660" y="1540" as="targetPoint"/>
                        <Array as="points">
                            <mxPoint x="905" y="1280"/>
                        </Array>
                    </mxGeometry>
                </mxCell>
                <mxCell id="61" value="" style="endArrow=none;html=1;rounded=0;fontSize=8;entryX=1;entryY=0.5;entryDx=0;entryDy=0;entryPerimeter=0;exitX=0.5;exitY=0;exitDx=0;exitDy=0;exitPerimeter=0;" parent="4g3HLyUKp_iSWFGfKS_9-202" source="24" target="18" edge="1">
                    <mxGeometry width="50" height="50" relative="1" as="geometry">
                        <mxPoint x="490" y="1590" as="sourcePoint"/>
                        <mxPoint x="540" y="1540" as="targetPoint"/>
                        <Array as="points">
                            <mxPoint x="739" y="1280"/>
                        </Array>
                    </mxGeometry>
                </mxCell>
                <mxCell id="62" value="" style="endArrow=none;html=1;rounded=0;fontSize=8;entryX=1;entryY=0.5;entryDx=0;entryDy=0;entryPerimeter=0;exitX=0.5;exitY=0;exitDx=0;exitDy=0;exitPerimeter=0;" parent="4g3HLyUKp_iSWFGfKS_9-202" source="23" target="18" edge="1">
                    <mxGeometry width="50" height="50" relative="1" as="geometry">
                        <mxPoint x="400" y="1610" as="sourcePoint"/>
                        <mxPoint x="450" y="1560" as="targetPoint"/>
                        <Array as="points">
                            <mxPoint x="565" y="1280"/>
                        </Array>
                    </mxGeometry>
                </mxCell>
                <mxCell id="63" value="&lt;font style=&quot;font-size: 12px&quot;&gt;Edge VPC&lt;/font&gt;" style="text;html=1;strokeColor=none;fillColor=none;align=center;verticalAlign=middle;whiteSpace=wrap;rounded=0;fontSize=8;" parent="4g3HLyUKp_iSWFGfKS_9-202" vertex="1">
                    <mxGeometry x="510" y="158" width="60" height="30" as="geometry"/>
                </mxCell>
                <mxCell id="64" value="&lt;font style=&quot;font-size: 12px&quot;&gt;Management VPC&lt;/font&gt;" style="text;html=1;strokeColor=none;fillColor=none;align=center;verticalAlign=middle;whiteSpace=wrap;rounded=0;fontSize=8;" parent="4g3HLyUKp_iSWFGfKS_9-202" vertex="1">
                    <mxGeometry x="523.68" y="615" width="116.32" height="30" as="geometry"/>
                </mxCell>
                <mxCell id="65" value="&lt;font style=&quot;font-size: 12px&quot;&gt;Workload VPC&lt;/font&gt;" style="text;html=1;strokeColor=none;fillColor=none;align=center;verticalAlign=middle;whiteSpace=wrap;rounded=0;fontSize=8;" parent="4g3HLyUKp_iSWFGfKS_9-202" vertex="1">
                    <mxGeometry x="513.67" y="1087" width="116.32" height="30" as="geometry"/>
                </mxCell>
                <mxCell id="66" value="" style="endArrow=classic;startArrow=classic;html=1;rounded=0;entryX=1;entryY=0.75;entryDx=0;entryDy=0;" parent="4g3HLyUKp_iSWFGfKS_9-202" target="39" edge="1">
                    <mxGeometry width="50" height="50" relative="1" as="geometry">
                        <mxPoint x="1085" y="557" as="sourcePoint"/>
                        <mxPoint x="1049.83" y="456.5020000000002" as="targetPoint"/>
                        <Array as="points">
                            <mxPoint x="1085" y="460"/>
                        </Array>
                    </mxGeometry>
                </mxCell>
                <mxCell id="67" value="" style="endArrow=classic;startArrow=classic;html=1;rounded=0;fontSize=12;entryX=1;entryY=0.5;entryDx=0;entryDy=0;exitX=0.5;exitY=0;exitDx=0;exitDy=0;exitPerimeter=0;" parent="4g3HLyUKp_iSWFGfKS_9-202" source="2" target="39" edge="1">
                    <mxGeometry width="50" height="50" relative="1" as="geometry">
                        <mxPoint x="1390" y="570" as="sourcePoint"/>
                        <mxPoint x="1190" y="410" as="targetPoint"/>
                        <Array as="points">
                            <mxPoint x="1235" y="360"/>
                        </Array>
                    </mxGeometry>
                </mxCell>
                <mxCell id="68" value="" style="endArrow=classic;html=1;rounded=0;fontSize=12;entryX=1;entryY=0.7;entryDx=0;entryDy=0;entryPerimeter=0;exitX=0;exitY=0.5;exitDx=0;exitDy=0;exitPerimeter=0;" parent="4g3HLyUKp_iSWFGfKS_9-202" source="13" target="4g3HLyUKp_iSWFGfKS_9-43" edge="1">
                    <mxGeometry width="50" height="50" relative="1" as="geometry">
                        <mxPoint x="750" y="350" as="sourcePoint"/>
                        <mxPoint x="800" y="300" as="targetPoint"/>
                    </mxGeometry>
                </mxCell>
                <mxCell id="69" value="Internet" style="text;html=1;strokeColor=none;fillColor=none;align=center;verticalAlign=middle;whiteSpace=wrap;rounded=0;fontSize=12;" parent="4g3HLyUKp_iSWFGfKS_9-202" vertex="1">
                    <mxGeometry x="180" y="457" width="60" height="30" as="geometry"/>
                </mxCell>
                <mxCell id="70" value="" style="endArrow=none;html=1;rounded=0;fontSize=12;entryX=1;entryY=0.5;entryDx=0;entryDy=0;entryPerimeter=0;exitX=0;exitY=0.5;exitDx=0;exitDy=0;exitPerimeter=0;" parent="4g3HLyUKp_iSWFGfKS_9-202" source="15" target="13" edge="1">
                    <mxGeometry width="50" height="50" relative="1" as="geometry">
                        <mxPoint x="750" y="350" as="sourcePoint"/>
                        <mxPoint x="800" y="300" as="targetPoint"/>
                    </mxGeometry>
                </mxCell>
            </root>
        </mxGraphModel>
    </diagram>
</mxfile>